G04 DipTrace 3.3.1.3*
G04 Bottom.gbr*
%MOIN*%
G04 #@! TF.FileFunction,Copper,L2,Bot*
G04 #@! TF.Part,Single*
G04 #@! TA.AperFunction,Conductor*
%ADD13C,0.012992*%
G04 #@! TA.AperFunction,ComponentPad*
%ADD14C,0.05*%
G04 #@! TA.AperFunction,CopperBalancing*
%ADD15C,0.025*%
%ADD16C,0.013*%
G04 #@! TA.AperFunction,ComponentPad*
%ADD17R,0.059055X0.059055*%
%ADD18C,0.059055*%
%ADD19R,0.05X0.05*%
%ADD20C,0.0394*%
%ADD21C,0.06*%
%ADD22C,0.06*%
%ADD23C,0.05*%
%FSLAX26Y26*%
G04*
G70*
G90*
G75*
G01*
G04 Bottom*
%LPD*%
X1041501Y5168700D2*
D14*
X1218700D1*
X1491501D2*
X1218700D1*
X1491501D2*
X1668700D1*
X2041501D1*
X2218700D1*
X2591501D1*
X2768700D1*
X3091501D1*
X3268700D2*
X3091501D1*
X2218700Y6868700D2*
X2443700D1*
X2591501Y6720899D1*
Y5168700D1*
X2418700Y1718700D2*
X2468700D1*
X2518700Y1768700D1*
Y5095899D1*
X2591501Y5168700D1*
X1818700Y1818700D2*
D13*
X2418700D1*
X1760518Y7906331D2*
D15*
X2363503D1*
X1599361Y7881462D2*
X2453536D1*
X1540296Y7856594D2*
X2543067D1*
X1481230Y7831725D2*
X2632599D1*
X1422166Y7806856D2*
X2722129D1*
X1363100Y7781987D2*
X2811410D1*
X1304035Y7757119D2*
X2852856D1*
X1244969Y7732250D2*
X2894338D1*
X1185903Y7707381D2*
X2935784D1*
X1128310Y7682512D2*
X2977230D1*
X1108752Y7657644D2*
X1507486D1*
X1579913D2*
X2582504D1*
X2654894D2*
X3018676D1*
X1089231Y7632775D2*
X1491661D1*
X1595737D2*
X2566644D1*
X2670755D2*
X3059226D1*
X1069675Y7607906D2*
X1490835D1*
X1596562D2*
X2565854D1*
X2671545D2*
X3081833D1*
X1050154Y7583037D2*
X1504041D1*
X1583357D2*
X2579060D1*
X2658339D2*
X3104440D1*
X1030598Y7558169D2*
X1208104D1*
X1279275D2*
X1489687D1*
X1597710D2*
X2564705D1*
X2672693D2*
X2883106D1*
X2954276D2*
X3127046D1*
X1011077Y7533300D2*
X1191813D1*
X1295602D2*
X1489687D1*
X1597710D2*
X2564705D1*
X2672693D2*
X2866814D1*
X2970604D2*
X3149654D1*
X991519Y7508431D2*
X1190735D1*
X1296678D2*
X1489687D1*
X1597710D2*
X2564705D1*
X2672693D2*
X2865738D1*
X2971680D2*
X3172260D1*
X971998Y7483562D2*
X1203546D1*
X1283868D2*
X1489687D1*
X1597710D2*
X2564705D1*
X2672693D2*
X2878549D1*
X2958834D2*
X3194903D1*
X952441Y7458693D2*
X1189696D1*
X1297683D2*
X2864697D1*
X2972686D2*
X3217511D1*
X932920Y7433825D2*
X1189696D1*
X1297683D2*
X2864697D1*
X2972686D2*
X3240117D1*
X913364Y7408956D2*
X1189696D1*
X1297683D2*
X2864697D1*
X2972686D2*
X3262725D1*
X893843Y7384087D2*
X1189696D1*
X1297683D2*
X2864697D1*
X2972686D2*
X3285333D1*
X874285Y7359218D2*
X3306468D1*
X856020Y7334350D2*
X3316012D1*
X846546Y7309481D2*
X3325594D1*
X837074Y7284612D2*
X3335140D1*
X827600Y7259743D2*
X1427356D1*
X1510045D2*
X3344720D1*
X818127Y7234875D2*
X1412070D1*
X1525333D2*
X3354266D1*
X808653Y7210006D2*
X1410384D1*
X1527019D2*
X3363847D1*
X799180Y7185137D2*
X1420754D1*
X1516649D2*
X3373392D1*
X789707Y7160268D2*
X3382973D1*
X780233Y7135399D2*
X3392554D1*
X770759Y7110531D2*
X3402099D1*
X761287Y7085662D2*
X3411680D1*
X751813Y7060793D2*
X3421225D1*
X742339Y7035924D2*
X3430268D1*
X732865Y7011056D2*
X3436476D1*
X723393Y6986187D2*
X3442684D1*
X713919Y6961318D2*
X3448928D1*
X704445Y6936449D2*
X3455136D1*
X694972Y6911581D2*
X2010474D1*
X2072531D2*
X2187671D1*
X2474720D2*
X3461344D1*
X685499Y6886712D2*
X1990738D1*
X2092230D2*
X2167970D1*
X2501023D2*
X3467552D1*
X676025Y6861843D2*
X1429725D1*
X1507678D2*
X1987976D1*
X2095029D2*
X2165171D1*
X2525892D2*
X3473796D1*
X666552Y6836974D2*
X1412751D1*
X1524650D2*
X1998418D1*
X2084552D2*
X2175649D1*
X2550759D2*
X3480003D1*
X658478Y6812106D2*
X1410096D1*
X1527306D2*
X2424973D1*
X2575627D2*
X3486212D1*
X657653Y6787237D2*
X1419283D1*
X1518120D2*
X2449840D1*
X2600494D2*
X3492419D1*
X656827Y6762368D2*
X1461842D1*
X1475539D2*
X2474708D1*
X2625361D2*
X3498663D1*
X656002Y6737499D2*
X2499575D1*
X2642766D2*
X3504872D1*
X655176Y6712630D2*
X2524444D1*
X2645493D2*
X3511079D1*
X654351Y6687762D2*
X2537506D1*
X2645493D2*
X3517288D1*
X653525Y6662893D2*
X2027053D1*
X2055917D2*
X2204249D1*
X2233148D2*
X2537506D1*
X2645493D2*
X3523531D1*
X652701Y6638024D2*
X1994111D1*
X2088893D2*
X2171308D1*
X2266090D2*
X2537506D1*
X2645493D2*
X3529201D1*
X651839Y6613155D2*
X1987508D1*
X2095497D2*
X2164705D1*
X2272692D2*
X2537506D1*
X2645493D2*
X3531676D1*
X651014Y6588287D2*
X1993717D1*
X2089288D2*
X2170913D1*
X2266485D2*
X2537506D1*
X2645493D2*
X3534188D1*
X650188Y6563418D2*
X2024361D1*
X2058644D2*
X2201558D1*
X2235839D2*
X2537506D1*
X2645493D2*
X3536665D1*
X649364Y6538549D2*
X2537506D1*
X2645493D2*
X3539141D1*
X648539Y6513680D2*
X2537506D1*
X2645493D2*
X3541653D1*
X647713Y6488812D2*
X2537506D1*
X2645493D2*
X3544129D1*
X646888Y6463943D2*
X2537506D1*
X2645493D2*
X3546604D1*
X646062Y6439074D2*
X2537506D1*
X2645493D2*
X3549116D1*
X645237Y6414205D2*
X2537506D1*
X2645493D2*
X3551592D1*
X644411Y6389336D2*
X2537506D1*
X2645493D2*
X3553351D1*
X643550Y6364468D2*
X2537506D1*
X2645493D2*
X3551592D1*
X642725Y6339599D2*
X2537506D1*
X2645493D2*
X3549798D1*
X641899Y6314730D2*
X2008430D1*
X2078953D2*
X2537506D1*
X2645493D2*
X3548040D1*
X641074Y6289861D2*
X1988800D1*
X2098582D2*
X2537506D1*
X2645493D2*
X3546246D1*
X640249Y6264993D2*
X1984817D1*
X2102565D2*
X2537506D1*
X2645493D2*
X3544487D1*
X639423Y6240124D2*
X1992461D1*
X2094959D2*
X2537506D1*
X2645493D2*
X3542693D1*
X638598Y6215255D2*
X2022890D1*
X2064528D2*
X2537506D1*
X2645493D2*
X3540935D1*
X637773Y6190386D2*
X2537506D1*
X2645493D2*
X3539141D1*
X636948Y6165518D2*
X2537506D1*
X2645493D2*
X3537382D1*
X636123Y6140649D2*
X2537506D1*
X2645493D2*
X3535588D1*
X635260Y6115780D2*
X2537506D1*
X2645493D2*
X3533830D1*
X634436Y6090911D2*
X2537506D1*
X2645493D2*
X3532036D1*
X637127Y6066043D2*
X2537506D1*
X2645493D2*
X3530277D1*
X651336Y6041174D2*
X2537506D1*
X2645493D2*
X3526510D1*
X665548Y6016305D2*
X2537506D1*
X2645493D2*
X3515852D1*
X679758Y5991436D2*
X2537506D1*
X2645493D2*
X3505195D1*
X693968Y5966567D2*
X2537506D1*
X2645493D2*
X3494537D1*
X708178Y5941699D2*
X2537506D1*
X2645493D2*
X3483878D1*
X722388Y5916830D2*
X2011623D1*
X2075796D2*
X2537506D1*
X2645493D2*
X3473221D1*
X733691Y5891961D2*
X1989697D1*
X2097686D2*
X2537506D1*
X2645493D2*
X3462564D1*
X733691Y5867092D2*
X1984709D1*
X2102672D2*
X2537506D1*
X2645493D2*
X3453737D1*
X733691Y5842224D2*
X1991276D1*
X2096107D2*
X2537506D1*
X2645493D2*
X3454705D1*
X733691Y5817355D2*
X2017616D1*
X2069767D2*
X2537506D1*
X2645493D2*
X3455674D1*
X733691Y5792486D2*
X2537506D1*
X2645493D2*
X3456607D1*
X733691Y5767617D2*
X2537506D1*
X2645493D2*
X3457577D1*
X733691Y5742749D2*
X2537506D1*
X2645493D2*
X3458545D1*
X733691Y5717880D2*
X2537506D1*
X2645493D2*
X3459478D1*
X733691Y5693011D2*
X2537506D1*
X2645493D2*
X3460447D1*
X733691Y5668142D2*
X2537506D1*
X2645493D2*
X3461415D1*
X733691Y5643273D2*
X2537506D1*
X2645493D2*
X3462348D1*
X733691Y5618405D2*
X2537506D1*
X2645493D2*
X3463318D1*
X733691Y5593536D2*
X2537506D1*
X2645493D2*
X3464287D1*
X733691Y5568667D2*
X2537506D1*
X2645493D2*
X3465220D1*
X733691Y5543798D2*
X2537506D1*
X2645493D2*
X3466188D1*
X733691Y5518930D2*
X2537506D1*
X2645493D2*
X3467157D1*
X733691Y5494061D2*
X2537506D1*
X2645493D2*
X3468090D1*
X733691Y5469192D2*
X2537506D1*
X2645493D2*
X3469060D1*
X733691Y5444323D2*
X2537506D1*
X2645493D2*
X3470028D1*
X733691Y5419455D2*
X2537506D1*
X2645493D2*
X3470961D1*
X733691Y5394586D2*
X2537506D1*
X2645493D2*
X3471930D1*
X733691Y5369717D2*
X2537506D1*
X2645493D2*
X3472898D1*
X733691Y5344848D2*
X2537506D1*
X2645493D2*
X3473831D1*
X733691Y5319980D2*
X2537506D1*
X2645493D2*
X3474801D1*
X733691Y5295111D2*
X2537506D1*
X2645493D2*
X3475770D1*
X733691Y5270242D2*
X2537506D1*
X2645493D2*
X3476703D1*
X733691Y5245373D2*
X2537506D1*
X2645493D2*
X3477671D1*
X733691Y5220504D2*
X2537506D1*
X2645493D2*
X3478604D1*
X733691Y5195636D2*
X995095D1*
X3315092D2*
X3478712D1*
X733691Y5170767D2*
X987560D1*
X3322663D2*
X3478712D1*
X733691Y5145898D2*
X992835D1*
X3317389D2*
X3478712D1*
X733691Y5121029D2*
X1019497D1*
X3290691D2*
X3478712D1*
X733691Y5096161D2*
X2464696D1*
X2594287D2*
X3478712D1*
X733691Y5071292D2*
X2464696D1*
X2572684D2*
X3478712D1*
X733691Y5046423D2*
X2464696D1*
X2572684D2*
X3478712D1*
X733691Y5021554D2*
X2464696D1*
X2572684D2*
X3478712D1*
X733691Y4996686D2*
X2464696D1*
X2572684D2*
X3478712D1*
X733691Y4971817D2*
X2464696D1*
X2572684D2*
X3478712D1*
X733691Y4946948D2*
X1000443D1*
X1082557D2*
X1177638D1*
X1259754D2*
X1450466D1*
X1532545D2*
X1627662D1*
X1709741D2*
X2000462D1*
X2082543D2*
X2177659D1*
X2259738D2*
X2464696D1*
X2632539D2*
X2727655D1*
X2809735D2*
X3050470D1*
X3132549D2*
X3227666D1*
X3309745D2*
X3478712D1*
X733691Y4922079D2*
X988350D1*
X1094650D2*
X1165545D1*
X1271847D2*
X1438336D1*
X1544674D2*
X1615533D1*
X1721871D2*
X1988334D1*
X2094671D2*
X2165529D1*
X2271867D2*
X2464696D1*
X2644667D2*
X2715527D1*
X2821864D2*
X3038340D1*
X3144642D2*
X3215537D1*
X3321838D2*
X3478712D1*
X733691Y4897210D2*
X989928D1*
X1093071D2*
X1167124D1*
X1270304D2*
X1439915D1*
X1543095D2*
X1617112D1*
X1720291D2*
X1989913D1*
X2093092D2*
X2167109D1*
X2270288D2*
X2464696D1*
X2643088D2*
X2717106D1*
X2820285D2*
X3039920D1*
X3143099D2*
X3217116D1*
X3320296D2*
X3478712D1*
X733691Y4872342D2*
X1007117D1*
X1075882D2*
X1184313D1*
X1253079D2*
X1457140D1*
X1525871D2*
X1634336D1*
X1703066D2*
X2007137D1*
X2075868D2*
X2184334D1*
X2253064D2*
X2464696D1*
X2625864D2*
X2734330D1*
X2803061D2*
X3057145D1*
X3125875D2*
X3234340D1*
X3303071D2*
X3478712D1*
X733691Y4847473D2*
X2464696D1*
X2572684D2*
X3478712D1*
X733691Y4822604D2*
X2464696D1*
X2572684D2*
X3478712D1*
X733691Y4797735D2*
X2464696D1*
X2572684D2*
X3478712D1*
X733691Y4772867D2*
X2464696D1*
X2572684D2*
X3478712D1*
X733691Y4747998D2*
X2464696D1*
X2572684D2*
X3478712D1*
X733691Y4723129D2*
X2464696D1*
X2572684D2*
X3478712D1*
X733691Y4698260D2*
X2464696D1*
X2572684D2*
X3478712D1*
X733691Y4673392D2*
X2464696D1*
X2572684D2*
X3478712D1*
X733691Y4648523D2*
X2464696D1*
X2572684D2*
X3478712D1*
X733691Y4623654D2*
X1028073D1*
X1059340D2*
X1653067D1*
X1684335D2*
X2028058D1*
X2059325D2*
X2464696D1*
X2609322D2*
X3078065D1*
X3109333D2*
X3478712D1*
X733691Y4598785D2*
X993373D1*
X1094040D2*
X1618368D1*
X1719035D2*
X1993393D1*
X2094025D2*
X2464696D1*
X2644022D2*
X3043365D1*
X3144032D2*
X3478712D1*
X733691Y4573917D2*
X984940D1*
X1102473D2*
X1609935D1*
X1727468D2*
X1984924D1*
X2102457D2*
X2464696D1*
X2652455D2*
X3034932D1*
X3152465D2*
X3478712D1*
X733691Y4549048D2*
X988242D1*
X1099171D2*
X1613237D1*
X1724167D2*
X1988226D1*
X2099157D2*
X2464696D1*
X2649190D2*
X3038233D1*
X3149163D2*
X3478712D1*
X733691Y4524179D2*
X1006399D1*
X1080978D2*
X1631430D1*
X1705973D2*
X2006419D1*
X2080999D2*
X2464696D1*
X2630995D2*
X3056427D1*
X3130970D2*
X3478712D1*
X733691Y4499310D2*
X2464696D1*
X2572684D2*
X3478712D1*
X733691Y4474441D2*
X2464696D1*
X2572684D2*
X3478712D1*
X733691Y4449573D2*
X2464696D1*
X2572684D2*
X3478712D1*
X733691Y4424704D2*
X2464696D1*
X2572684D2*
X3478712D1*
X733691Y4399835D2*
X2464696D1*
X2572684D2*
X3478712D1*
X733691Y4374966D2*
X2464696D1*
X2572684D2*
X3478712D1*
X733691Y4350098D2*
X2464696D1*
X2572684D2*
X3478712D1*
X733691Y4325229D2*
X2464696D1*
X2572684D2*
X3478712D1*
X733691Y4300360D2*
X2464696D1*
X2572684D2*
X3478712D1*
X733691Y4275491D2*
X2464696D1*
X2572684D2*
X3478712D1*
X733691Y4250623D2*
X2464696D1*
X2572684D2*
X3478712D1*
X733691Y4225754D2*
X2464696D1*
X2572684D2*
X3478712D1*
X733691Y4200885D2*
X994772D1*
X1092641D2*
X1619767D1*
X1717636D2*
X1994758D1*
X2092625D2*
X2464696D1*
X2642623D2*
X3044764D1*
X3142633D2*
X3478712D1*
X733691Y4176016D2*
X985191D1*
X1102222D2*
X1610187D1*
X1727217D2*
X1985176D1*
X2102207D2*
X2464696D1*
X2652239D2*
X3035183D1*
X3152213D2*
X3478712D1*
X733691Y4151148D2*
X987487D1*
X1099889D2*
X1612483D1*
X1724920D2*
X1987508D1*
X2099910D2*
X2464696D1*
X2649907D2*
X3037480D1*
X3149917D2*
X3478712D1*
X733691Y4126279D2*
X1003888D1*
X1083527D2*
X1628882D1*
X1708522D2*
X2003872D1*
X2083511D2*
X2464696D1*
X2633508D2*
X3053878D1*
X3133518D2*
X3478712D1*
X733691Y4101410D2*
X2464696D1*
X2572684D2*
X3478712D1*
X733691Y4076541D2*
X2464696D1*
X2572684D2*
X3478712D1*
X733691Y4051672D2*
X2464696D1*
X2572684D2*
X3478712D1*
X733691Y4026804D2*
X2464696D1*
X2572684D2*
X3478712D1*
X733691Y4001935D2*
X2464696D1*
X2572684D2*
X3478712D1*
X733691Y3977066D2*
X2464696D1*
X2572684D2*
X3478712D1*
X733691Y3952197D2*
X2464696D1*
X2572684D2*
X3478712D1*
X733691Y3927329D2*
X2464696D1*
X2572684D2*
X3478712D1*
X733691Y3902460D2*
X2464696D1*
X2572684D2*
X3478712D1*
X733691Y3877591D2*
X2464696D1*
X2572684D2*
X3478712D1*
X733691Y3852722D2*
X2464696D1*
X2572684D2*
X3478712D1*
X733691Y3827854D2*
X2464696D1*
X2572684D2*
X3478712D1*
X733691Y3802985D2*
X2464696D1*
X2572684D2*
X3478712D1*
X733691Y3778116D2*
X2464696D1*
X2572684D2*
X3478712D1*
X733691Y3753247D2*
X2464696D1*
X2572684D2*
X3478712D1*
X733691Y3728378D2*
X2464696D1*
X2572684D2*
X3478712D1*
X733691Y3703510D2*
X2464696D1*
X2572684D2*
X3478712D1*
X733691Y3678641D2*
X2464696D1*
X2572684D2*
X3478712D1*
X733691Y3653772D2*
X2464696D1*
X2572684D2*
X3478712D1*
X733691Y3628903D2*
X2464696D1*
X2572684D2*
X3478712D1*
X733691Y3604035D2*
X2464696D1*
X2572684D2*
X3478712D1*
X733691Y3579166D2*
X2464696D1*
X2572684D2*
X3478712D1*
X733691Y3554297D2*
X2464696D1*
X2572684D2*
X3478712D1*
X733691Y3529428D2*
X2464696D1*
X2572684D2*
X3478712D1*
X733691Y3504560D2*
X2464696D1*
X2572684D2*
X3478712D1*
X733691Y3479691D2*
X2464696D1*
X2572684D2*
X3478712D1*
X733691Y3454822D2*
X2464696D1*
X2572684D2*
X3478712D1*
X733691Y3429953D2*
X2464696D1*
X2572684D2*
X3478712D1*
X732722Y3405085D2*
X2464696D1*
X2572684D2*
X3478712D1*
X730928Y3380216D2*
X2464696D1*
X2572684D2*
X3478712D1*
X729098Y3355347D2*
X2464696D1*
X2572684D2*
X3478712D1*
X727268Y3330478D2*
X2464696D1*
X2572684D2*
X3478712D1*
X725474Y3305609D2*
X2464696D1*
X2572684D2*
X3479107D1*
X723644Y3280741D2*
X2464696D1*
X2572684D2*
X3479896D1*
X721814Y3255872D2*
X2464696D1*
X2572684D2*
X3480650D1*
X719983Y3231003D2*
X2464696D1*
X2572684D2*
X3481439D1*
X718190Y3206134D2*
X2464696D1*
X2572684D2*
X3482229D1*
X716359Y3181266D2*
X2464696D1*
X2572684D2*
X3482982D1*
X714529Y3156397D2*
X2464696D1*
X2572684D2*
X3483771D1*
X712735Y3131528D2*
X2464696D1*
X2572684D2*
X3484525D1*
X710905Y3106659D2*
X2464696D1*
X2572684D2*
X3485314D1*
X709075Y3081791D2*
X2464696D1*
X2572684D2*
X3486104D1*
X707245Y3056922D2*
X2464696D1*
X2572684D2*
X3486857D1*
X705451Y3032053D2*
X2464696D1*
X2572684D2*
X3487648D1*
X703620Y3007184D2*
X2464696D1*
X2572684D2*
X3488436D1*
X701791Y2982315D2*
X2464696D1*
X2572684D2*
X3489190D1*
X699997Y2957447D2*
X2464696D1*
X2572684D2*
X3489980D1*
X698166Y2932578D2*
X2464696D1*
X2572684D2*
X3490768D1*
X696336Y2907709D2*
X1935548D1*
X1990032D2*
X2191439D1*
X2245959D2*
X2464696D1*
X2572684D2*
X3491523D1*
X694541Y2882840D2*
X1916314D1*
X2009267D2*
X2172204D1*
X2265192D2*
X2464696D1*
X2572684D2*
X3492312D1*
X692712Y2857972D2*
X1915346D1*
X2010235D2*
X2171271D1*
X2266125D2*
X2464696D1*
X2572684D2*
X3493102D1*
X690881Y2833103D2*
X1930847D1*
X1994733D2*
X2186738D1*
X2250659D2*
X2464696D1*
X2572684D2*
X3493855D1*
X689052Y2808234D2*
X2464696D1*
X2572684D2*
X3494645D1*
X687258Y2783365D2*
X2464696D1*
X2572684D2*
X3495434D1*
X685427Y2758497D2*
X2464696D1*
X2572684D2*
X3496187D1*
X683596Y2733628D2*
X2464696D1*
X2572684D2*
X3496977D1*
X681802Y2708759D2*
X2464696D1*
X2572684D2*
X3497767D1*
X679973Y2683890D2*
X2464696D1*
X2572684D2*
X3498520D1*
X678142Y2659022D2*
X2464696D1*
X2572684D2*
X3499309D1*
X676313Y2634153D2*
X2464696D1*
X2572684D2*
X3500099D1*
X674519Y2609284D2*
X2464696D1*
X2572684D2*
X3500852D1*
X672688Y2584415D2*
X2464696D1*
X2572684D2*
X3501642D1*
X670857Y2559546D2*
X2464696D1*
X2572684D2*
X3502431D1*
X669064Y2534678D2*
X2464696D1*
X2572684D2*
X3503184D1*
X667234Y2509809D2*
X2464696D1*
X2572684D2*
X3503687D1*
X665403Y2484940D2*
X2464696D1*
X2572684D2*
X3503687D1*
X663574Y2460071D2*
X2464696D1*
X2572684D2*
X3503687D1*
X661779Y2435203D2*
X2464696D1*
X2572684D2*
X3503687D1*
X659949Y2410334D2*
X2464696D1*
X2572684D2*
X3503687D1*
X658693Y2385465D2*
X2464696D1*
X2572684D2*
X3503687D1*
X658693Y2360596D2*
X2464696D1*
X2572684D2*
X3503687D1*
X658693Y2335728D2*
X2464696D1*
X2572684D2*
X3503687D1*
X658693Y2310859D2*
X2464696D1*
X2572684D2*
X3503687D1*
X658693Y2285990D2*
X2464696D1*
X2572684D2*
X3503687D1*
X658693Y2261121D2*
X2464696D1*
X2572684D2*
X3503687D1*
X658693Y2236252D2*
X2464696D1*
X2572684D2*
X3503687D1*
X658693Y2211384D2*
X2464696D1*
X2572684D2*
X3503687D1*
X658693Y2186515D2*
X2464696D1*
X2572684D2*
X3503687D1*
X658693Y2161646D2*
X1775756D1*
X1861638D2*
X2375739D1*
X2572684D2*
X3503687D1*
X658693Y2136777D2*
X1760039D1*
X1877356D2*
X2360023D1*
X2572684D2*
X3503687D1*
X658693Y2111909D2*
X1757599D1*
X1879796D2*
X2357582D1*
X2572684D2*
X3503687D1*
X658693Y2087040D2*
X1766426D1*
X1870969D2*
X2366410D1*
X2572684D2*
X3503687D1*
X658693Y2062171D2*
X1760182D1*
X1877213D2*
X2380871D1*
X2572684D2*
X3503687D1*
X658693Y2037302D2*
X1760182D1*
X1877213D2*
X2363360D1*
X2572684D2*
X3503687D1*
X658693Y2012434D2*
X1760182D1*
X1877213D2*
X2360524D1*
X2572684D2*
X3503687D1*
X658693Y1987565D2*
X1760182D1*
X1877213D2*
X2369603D1*
X2572684D2*
X3503687D1*
X658693Y1962696D2*
X1760182D1*
X1877213D2*
X2381516D1*
X2455881D2*
X2464703D1*
X2572684D2*
X3503687D1*
X658693Y1937827D2*
X1763556D1*
X1873876D2*
X2363539D1*
X2572684D2*
X3503687D1*
X658693Y1912959D2*
X1760469D1*
X1876926D2*
X2360453D1*
X2572684D2*
X3503687D1*
X658693Y1888090D2*
X1769260D1*
X1868134D2*
X2369280D1*
X2572684D2*
X3503687D1*
X658693Y1863221D2*
X1782179D1*
X1855216D2*
X2382199D1*
X2455199D2*
X2464708D1*
X2572684D2*
X3503687D1*
X658693Y1838352D2*
X1763734D1*
X2572684D2*
X3503687D1*
X659375Y1813483D2*
X1760434D1*
X2572684D2*
X3503687D1*
X662246Y1788615D2*
X1768938D1*
X2572684D2*
X3503687D1*
X665116Y1763746D2*
X1782897D1*
X1854533D2*
X2382881D1*
X2572469D2*
X3503687D1*
X667987Y1738877D2*
X1763914D1*
X1873481D2*
X2363934D1*
X2563175D2*
X3503687D1*
X670857Y1714008D2*
X1760361D1*
X1877033D2*
X2360381D1*
X2539348D2*
X3503687D1*
X673729Y1689140D2*
X1768615D1*
X1868780D2*
X2368599D1*
X2514480D2*
X3503687D1*
X676599Y1664271D2*
X1783615D1*
X1853780D2*
X2383598D1*
X2453800D2*
X3503687D1*
X679470Y1639402D2*
X1764129D1*
X1873266D2*
X2364149D1*
X2473249D2*
X3503687D1*
X682340Y1614533D2*
X1760326D1*
X1877069D2*
X2360346D1*
X2477088D2*
X3502718D1*
X685212Y1589665D2*
X1768292D1*
X1869103D2*
X2368276D1*
X2469123D2*
X3498125D1*
X688082Y1564796D2*
X1133537D1*
X1203882D2*
X1433528D1*
X1503873D2*
X1784368D1*
X1853062D2*
X2384352D1*
X2453046D2*
X2958284D1*
X3054142D2*
X3493567D1*
X690953Y1539927D2*
X1113836D1*
X1223546D2*
X1413829D1*
X1523574D2*
X1764344D1*
X1873050D2*
X2364364D1*
X2473033D2*
X2947877D1*
X3064512D2*
X3488974D1*
X693823Y1515058D2*
X1109817D1*
X1227565D2*
X1409809D1*
X1527592D2*
X1760289D1*
X1877106D2*
X2360273D1*
X2477124D2*
X2949564D1*
X3062861D2*
X3484381D1*
X696695Y1490190D2*
X1117424D1*
X1219994D2*
X1417417D1*
X1519986D2*
X1767969D1*
X1869426D2*
X2367953D1*
X2469445D2*
X2964850D1*
X3047575D2*
X3479825D1*
X699565Y1465321D2*
X1147675D1*
X1189708D2*
X1447667D1*
X1489735D2*
X1785121D1*
X1852273D2*
X2385141D1*
X2452256D2*
X3475231D1*
X702436Y1440452D2*
X1764560D1*
X1872835D2*
X2364579D1*
X2472818D2*
X3470638D1*
X705306Y1415583D2*
X1760254D1*
X1877141D2*
X2360273D1*
X2477124D2*
X3466081D1*
X708178Y1390714D2*
X1767646D1*
X1869749D2*
X2367666D1*
X2469733D2*
X3461487D1*
X711048Y1365846D2*
X1785911D1*
X1851483D2*
X2385931D1*
X2451468D2*
X3456894D1*
X713919Y1340977D2*
X1764775D1*
X1872620D2*
X2364794D1*
X2472603D2*
X3452336D1*
X716789Y1316108D2*
X1760218D1*
X1877176D2*
X2360238D1*
X2477161D2*
X3447743D1*
X719661Y1291239D2*
X1767359D1*
X1870036D2*
X2367378D1*
X2470019D2*
X3443150D1*
X722495Y1266371D2*
X1786772D1*
X1850623D2*
X2386756D1*
X2450642D2*
X3438594D1*
X725367Y1241502D2*
X1765027D1*
X1872368D2*
X2365010D1*
X2472388D2*
X3434001D1*
X728237Y1216633D2*
X1760218D1*
X1877176D2*
X2360201D1*
X2477196D2*
X3429407D1*
X731108Y1191764D2*
X1767071D1*
X1870323D2*
X2367056D1*
X2470342D2*
X3424850D1*
X734661Y1166896D2*
X1136730D1*
X1200688D2*
X1436722D1*
X1500680D2*
X1787633D1*
X1849762D2*
X2387617D1*
X2449781D2*
X2959898D1*
X3052491D2*
X3420256D1*
X741443Y1142027D2*
X1114733D1*
X1222649D2*
X1414725D1*
X1522676D2*
X1765242D1*
X1872153D2*
X2365262D1*
X2472137D2*
X2948235D1*
X3064154D2*
X3415699D1*
X748225Y1117158D2*
X1109709D1*
X1227672D2*
X1409737D1*
X1527665D2*
X1760182D1*
X1877213D2*
X2360201D1*
X2477196D2*
X2948990D1*
X3063436D2*
X3411106D1*
X755007Y1092289D2*
X1116241D1*
X1221142D2*
X1416268D1*
X1521134D2*
X1766785D1*
X1870609D2*
X2366805D1*
X2470629D2*
X2962733D1*
X3049657D2*
X3406512D1*
X761789Y1067420D2*
X1142472D1*
X1194911D2*
X1442464D1*
X1494902D2*
X1788531D1*
X1848864D2*
X2388550D1*
X2448884D2*
X3401956D1*
X768570Y1042552D2*
X1765493D1*
X1871902D2*
X2365512D1*
X2471885D2*
X3397363D1*
X775352Y1017683D2*
X1760182D1*
X1877213D2*
X2360166D1*
X2477231D2*
X3392770D1*
X782134Y992814D2*
X1766498D1*
X1870897D2*
X2366518D1*
X2470881D2*
X3388212D1*
X788917Y967945D2*
X1789464D1*
X1847931D2*
X2389483D1*
X2447915D2*
X3383619D1*
X795699Y943077D2*
X1765745D1*
X1871650D2*
X2365764D1*
X2471634D2*
X3379025D1*
X802481Y918208D2*
X1760182D1*
X1877213D2*
X2360166D1*
X2477231D2*
X3374468D1*
X809263Y893339D2*
X1766247D1*
X1871149D2*
X2366230D1*
X2471167D2*
X3369875D1*
X816045Y868470D2*
X1790469D1*
X1846927D2*
X2390487D1*
X2446945D2*
X3365281D1*
X822827Y843602D2*
X1765995D1*
X1871399D2*
X2366015D1*
X2471382D2*
X3360725D1*
X829609Y818733D2*
X1760182D1*
X1877213D2*
X2360166D1*
X2477231D2*
X3356132D1*
X836392Y793864D2*
X1765995D1*
X1871435D2*
X2365980D1*
X2471419D2*
X3351539D1*
X843174Y768995D2*
X1155138D1*
X1182280D2*
X1455130D1*
X1482271D2*
X1790361D1*
X1847070D2*
X2390344D1*
X2447053D2*
X2652191D1*
X2760214D2*
X2952183D1*
X3060207D2*
X3346981D1*
X849956Y744127D2*
X1121407D1*
X1215974D2*
X1421399D1*
X1516002D2*
X1766283D1*
X1871112D2*
X2366266D1*
X2471132D2*
X2652191D1*
X2760214D2*
X2952183D1*
X3060207D2*
X3342388D1*
X856738Y719258D2*
X1114697D1*
X1222686D2*
X1414690D1*
X1522713D2*
X1760182D1*
X1877213D2*
X2360166D1*
X2477231D2*
X2652191D1*
X2760214D2*
X2952183D1*
X3060207D2*
X3337794D1*
X863520Y694389D2*
X1120798D1*
X1216585D2*
X1420789D1*
X1516612D2*
X1765708D1*
X1871687D2*
X2365728D1*
X2471670D2*
X2652191D1*
X2760214D2*
X2952183D1*
X3060207D2*
X3333237D1*
X870302Y669520D2*
X1114697D1*
X1222686D2*
X1414690D1*
X1522713D2*
X1789356D1*
X1848039D2*
X2389376D1*
X2448058D2*
X2669308D1*
X2743098D2*
X2969300D1*
X3043090D2*
X3324338D1*
X877085Y644651D2*
X1114697D1*
X1222686D2*
X1414690D1*
X1522713D2*
X1766533D1*
X1870861D2*
X2366553D1*
X2470844D2*
X2653986D1*
X2758420D2*
X2953977D1*
X3058413D2*
X3299470D1*
X897001Y619783D2*
X1114697D1*
X1222686D2*
X1414690D1*
X1522713D2*
X1760182D1*
X1877213D2*
X2360166D1*
X2477231D2*
X2653483D1*
X2758923D2*
X2953476D1*
X3058915D2*
X3274603D1*
X946735Y594914D2*
X1114697D1*
X1222686D2*
X1414690D1*
X1522713D2*
X1765457D1*
X1871938D2*
X2365477D1*
X2471922D2*
X2667155D1*
X2745251D2*
X2967146D1*
X3045243D2*
X3249735D1*
X996472Y570045D2*
X1114697D1*
X1222686D2*
X1414690D1*
X1522713D2*
X1787132D1*
X1850263D2*
X2387150D1*
X2450247D2*
X3205705D1*
X1046207Y545176D2*
X1763483D1*
X1873911D2*
X2363468D1*
X2473931D2*
X3131102D1*
X1095943Y520308D2*
X1757239D1*
X1880191D2*
X2357224D1*
X2480175D2*
X3056498D1*
X1351007Y495439D2*
X1761977D1*
X1875418D2*
X2361995D1*
X2475438D2*
X2816792D1*
X1855323Y470570D2*
X2356721D1*
X1771859Y2074728D2*
X1779359D1*
X1773836Y2080382D1*
X1768394Y2087873D1*
X1764191Y2096121D1*
X1761330Y2104927D1*
X1759882Y2114071D1*
Y2123329D1*
X1761330Y2132473D1*
X1764191Y2141279D1*
X1768394Y2149527D1*
X1773836Y2157018D1*
X1780382Y2163564D1*
X1787873Y2169006D1*
X1796121Y2173209D1*
X1804927Y2176070D1*
X1814071Y2177518D1*
X1823329D1*
X1832473Y2176070D1*
X1841279Y2173209D1*
X1849527Y2169006D1*
X1857018Y2163564D1*
X1863564Y2157018D1*
X1869006Y2149527D1*
X1873209Y2141279D1*
X1876070Y2132473D1*
X1877518Y2123329D1*
Y2114071D1*
X1876070Y2104927D1*
X1873209Y2096121D1*
X1869006Y2087873D1*
X1863564Y2080382D1*
X1857987Y2074733D1*
X1874728Y2074728D1*
Y1962672D1*
X1853448D1*
X1858318Y1958318D1*
X1864027Y1951632D1*
X1868621Y1944136D1*
X1871985Y1936014D1*
X1874037Y1927465D1*
X1874728Y1918700D1*
X1874037Y1909935D1*
X1871985Y1901386D1*
X1868621Y1893264D1*
X1864027Y1885768D1*
X1858318Y1879082D1*
X1851632Y1873373D1*
X1843964Y1868700D1*
X1851632Y1864027D1*
X1858318Y1858318D1*
X1863974Y1851700D1*
X2373434Y1851696D1*
X2379082Y1858318D1*
X2385768Y1864027D1*
X2393436Y1868700D1*
X2387367Y1872254D1*
X2381561Y1876751D1*
X2376393Y1881969D1*
X2371952Y1887818D1*
X2368314Y1894197D1*
X2365543Y1900998D1*
X2363684Y1908103D1*
X2362771Y1915389D1*
X2362818Y1922733D1*
X2363826Y1930007D1*
X2365776Y1937087D1*
X2368636Y1943852D1*
X2372355Y1950184D1*
X2376871Y1955976D1*
X2382106Y1961125D1*
X2387969Y1965548D1*
X2393431Y1968697D1*
X2385768Y1973373D1*
X2379082Y1979082D1*
X2373373Y1985768D1*
X2368779Y1993264D1*
X2365415Y2001386D1*
X2363363Y2009935D1*
X2362672Y2018700D1*
X2363363Y2027465D1*
X2365415Y2036014D1*
X2368779Y2044136D1*
X2373373Y2051632D1*
X2379082Y2058318D1*
X2385768Y2064027D1*
X2390310Y2066966D1*
X2384020Y2070968D1*
X2376981Y2076981D1*
X2370968Y2084020D1*
X2366130Y2091914D1*
X2362587Y2100468D1*
X2360427Y2109470D1*
X2359700Y2118700D1*
X2360427Y2127930D1*
X2362587Y2136932D1*
X2366130Y2145486D1*
X2370968Y2153380D1*
X2376981Y2160419D1*
X2384020Y2166432D1*
X2391914Y2171270D1*
X2400468Y2174813D1*
X2409470Y2176973D1*
X2418700Y2177700D1*
X2427930Y2176973D1*
X2436932Y2174813D1*
X2445486Y2171270D1*
X2453380Y2166432D1*
X2460419Y2160419D1*
X2466432Y2153380D1*
X2467207Y2152221D1*
X2467359Y5099940D1*
X2468623Y5107922D1*
X2471127Y5115623D1*
X2462892Y5117200D1*
X1037460Y5117359D1*
X1029478Y5118623D1*
X1021792Y5121120D1*
X1014592Y5124789D1*
X1008054Y5129539D1*
X1002339Y5135254D1*
X997590Y5141792D1*
X993920Y5148991D1*
X991423Y5156678D1*
X990159Y5164659D1*
Y5172741D1*
X991423Y5180722D1*
X993920Y5188409D1*
X997590Y5195608D1*
X1002339Y5202146D1*
X1008054Y5207861D1*
X1014592Y5212611D1*
X1021792Y5216280D1*
X1029478Y5218777D1*
X1037460Y5220041D1*
X1069060Y5220200D1*
X2539972D1*
X2540001Y6699556D1*
X2422354Y6817214D1*
X2214659Y6817359D1*
X2206678Y6818623D1*
X2198991Y6821120D1*
X2191792Y6824789D1*
X2185254Y6829539D1*
X2179539Y6835254D1*
X2174789Y6841792D1*
X2171120Y6848991D1*
X2168623Y6856678D1*
X2167359Y6864659D1*
Y6872741D1*
X2168623Y6880722D1*
X2171120Y6888409D1*
X2174789Y6895608D1*
X2179539Y6902146D1*
X2185254Y6907861D1*
X2191792Y6912611D1*
X2198991Y6916280D1*
X2206678Y6918777D1*
X2214659Y6920041D1*
X2246259Y6920200D1*
X2447741Y6920041D1*
X2455722Y6918777D1*
X2463409Y6916280D1*
X2470608Y6912611D1*
X2477146Y6907861D1*
X2499603Y6885629D1*
X2630662Y6754346D1*
X2635411Y6747808D1*
X2639081Y6740608D1*
X2641578Y6732922D1*
X2642842Y6724940D1*
X2643001Y6693340D1*
Y5220187D1*
X3272741Y5220041D1*
X3280722Y5218777D1*
X3288409Y5216280D1*
X3295608Y5212611D1*
X3302146Y5207861D1*
X3307861Y5202146D1*
X3312611Y5195608D1*
X3316280Y5188409D1*
X3318777Y5180722D1*
X3320041Y5172741D1*
Y5164659D1*
X3318777Y5156678D1*
X3316280Y5148991D1*
X3312611Y5141792D1*
X3307861Y5135254D1*
X3302146Y5129539D1*
X3295608Y5124789D1*
X3288409Y5121120D1*
X3280722Y5118623D1*
X3272741Y5117359D1*
X3241141Y5117200D1*
X2612855D1*
X2570191Y5074558D1*
X2570200Y4959648D1*
X2575586Y4961773D1*
X2583444Y4963661D1*
X2591501Y4964294D1*
X2599557Y4963661D1*
X2607415Y4961773D1*
X2614881Y4958682D1*
X2621771Y4954459D1*
X2627917Y4949210D1*
X2633165Y4943065D1*
X2637388Y4936175D1*
X2640480Y4928709D1*
X2642367Y4920851D1*
X2643001Y4912794D1*
X2642367Y4904738D1*
X2640480Y4896880D1*
X2637388Y4889414D1*
X2633165Y4882524D1*
X2627917Y4876378D1*
X2621771Y4871130D1*
X2614881Y4866907D1*
X2607415Y4863815D1*
X2599557Y4861928D1*
X2591501Y4861294D1*
X2583444Y4861928D1*
X2575586Y4863815D1*
X2570200Y4865949D1*
Y4620111D1*
X2576241Y4622435D1*
X2584861Y4624504D1*
X2593700Y4625200D1*
X2602539Y4624504D1*
X2611159Y4622435D1*
X2619351Y4619043D1*
X2626910Y4614410D1*
X2633651Y4608651D1*
X2639410Y4601910D1*
X2644043Y4594351D1*
X2647435Y4586159D1*
X2649504Y4577539D1*
X2650200Y4568700D1*
X2649504Y4559861D1*
X2647435Y4551241D1*
X2644043Y4543049D1*
X2639410Y4535490D1*
X2633651Y4528749D1*
X2626910Y4522990D1*
X2619351Y4518357D1*
X2611159Y4514965D1*
X2602539Y4512896D1*
X2593700Y4512200D1*
X2584861Y4512896D1*
X2576241Y4514965D1*
X2570205Y4517364D1*
X2570200Y4220074D1*
X2577548Y4222842D1*
X2584707Y4224480D1*
X2592018Y4225175D1*
X2599356Y4224917D1*
X2606600Y4223708D1*
X2613627Y4221570D1*
X2620315Y4218539D1*
X2626554Y4214666D1*
X2632239Y4210015D1*
X2637272Y4204667D1*
X2641570Y4198712D1*
X2645058Y4192250D1*
X2647679Y4185389D1*
X2649388Y4178247D1*
X2650155Y4170944D1*
X2649931Y4163197D1*
X2648742Y4155949D1*
X2646624Y4148918D1*
X2643611Y4142221D1*
X2639755Y4135970D1*
X2635121Y4130273D1*
X2629787Y4125226D1*
X2623843Y4120913D1*
X2617390Y4117406D1*
X2610537Y4114767D1*
X2603399Y4113039D1*
X2596098Y4112251D1*
X2588755Y4112417D1*
X2581497Y4113533D1*
X2574444Y4115582D1*
X2570204Y4117325D1*
X2570041Y1764659D1*
X2568777Y1756678D1*
X2566280Y1748991D1*
X2562611Y1741792D1*
X2557861Y1735254D1*
X2535629Y1712797D1*
X2502146Y1679539D1*
X2495608Y1674789D1*
X2488409Y1671120D1*
X2480722Y1668623D1*
X2472741Y1667359D1*
X2446775Y1667200D1*
X2451632Y1664027D1*
X2458318Y1658318D1*
X2464027Y1651632D1*
X2468621Y1644136D1*
X2471985Y1636014D1*
X2474037Y1627465D1*
X2474728Y1618700D1*
X2474037Y1609935D1*
X2471985Y1601386D1*
X2468621Y1593264D1*
X2464027Y1585768D1*
X2458318Y1579082D1*
X2451632Y1573373D1*
X2443964Y1568700D1*
X2451632Y1564027D1*
X2458318Y1558318D1*
X2464027Y1551632D1*
X2468621Y1544136D1*
X2471985Y1536014D1*
X2474037Y1527465D1*
X2474728Y1518700D1*
X2474037Y1509935D1*
X2471985Y1501386D1*
X2468621Y1493264D1*
X2464027Y1485768D1*
X2458318Y1479082D1*
X2451632Y1473373D1*
X2443964Y1468700D1*
X2451632Y1464027D1*
X2458318Y1458318D1*
X2464027Y1451632D1*
X2468621Y1444136D1*
X2471985Y1436014D1*
X2474037Y1427465D1*
X2474728Y1418700D1*
X2474037Y1409935D1*
X2471985Y1401386D1*
X2468621Y1393264D1*
X2464027Y1385768D1*
X2458318Y1379082D1*
X2451632Y1373373D1*
X2443964Y1368700D1*
X2451632Y1364027D1*
X2458318Y1358318D1*
X2464027Y1351632D1*
X2468621Y1344136D1*
X2471985Y1336014D1*
X2474037Y1327465D1*
X2474728Y1318700D1*
X2474037Y1309935D1*
X2471985Y1301386D1*
X2468621Y1293264D1*
X2464027Y1285768D1*
X2458318Y1279082D1*
X2451632Y1273373D1*
X2443964Y1268700D1*
X2451632Y1264027D1*
X2458318Y1258318D1*
X2464027Y1251632D1*
X2468621Y1244136D1*
X2471985Y1236014D1*
X2474037Y1227465D1*
X2474728Y1218700D1*
X2474037Y1209935D1*
X2471985Y1201386D1*
X2468621Y1193264D1*
X2464027Y1185768D1*
X2458318Y1179082D1*
X2451632Y1173373D1*
X2443964Y1168700D1*
X2451632Y1164027D1*
X2458318Y1158318D1*
X2464027Y1151632D1*
X2468621Y1144136D1*
X2471985Y1136014D1*
X2474037Y1127465D1*
X2474728Y1118700D1*
X2474037Y1109935D1*
X2471985Y1101386D1*
X2468621Y1093264D1*
X2464027Y1085768D1*
X2458318Y1079082D1*
X2451632Y1073373D1*
X2443964Y1068700D1*
X2451632Y1064027D1*
X2458318Y1058318D1*
X2464027Y1051632D1*
X2468621Y1044136D1*
X2471985Y1036014D1*
X2474037Y1027465D1*
X2474728Y1018700D1*
X2474037Y1009935D1*
X2471985Y1001386D1*
X2468621Y993264D1*
X2464027Y985768D1*
X2458318Y979082D1*
X2451632Y973373D1*
X2443964Y968700D1*
X2451632Y964027D1*
X2458318Y958318D1*
X2464027Y951632D1*
X2468621Y944136D1*
X2471985Y936014D1*
X2474037Y927465D1*
X2474728Y918700D1*
X2474037Y909935D1*
X2471985Y901386D1*
X2468621Y893264D1*
X2464027Y885768D1*
X2458318Y879082D1*
X2451632Y873373D1*
X2443964Y868700D1*
X2451632Y864027D1*
X2458318Y858318D1*
X2464027Y851632D1*
X2468621Y844136D1*
X2471985Y836014D1*
X2474037Y827465D1*
X2474728Y818700D1*
X2474037Y809935D1*
X2471985Y801386D1*
X2468621Y793264D1*
X2464027Y785768D1*
X2458318Y779082D1*
X2451632Y773373D1*
X2443964Y768700D1*
X2451632Y764027D1*
X2458318Y758318D1*
X2464027Y751632D1*
X2468621Y744136D1*
X2471985Y736014D1*
X2474037Y727465D1*
X2474728Y718700D1*
X2474037Y709935D1*
X2471985Y701386D1*
X2468621Y693264D1*
X2464027Y685768D1*
X2458318Y679082D1*
X2451632Y673373D1*
X2443964Y668700D1*
X2451632Y664027D1*
X2458318Y658318D1*
X2464027Y651632D1*
X2468621Y644136D1*
X2471985Y636014D1*
X2474037Y627465D1*
X2474728Y618700D1*
X2474037Y609935D1*
X2471985Y601386D1*
X2468621Y593264D1*
X2464027Y585768D1*
X2458318Y579082D1*
X2451632Y573373D1*
X2447090Y570434D1*
X2453380Y566432D1*
X2460419Y560419D1*
X2466432Y553380D1*
X2471270Y545486D1*
X2474813Y536932D1*
X2476973Y527930D1*
X2477700Y518700D1*
X2476973Y509470D1*
X2474813Y500468D1*
X2471270Y491914D1*
X2466432Y484020D1*
X2460419Y476981D1*
X2459343Y475986D1*
X3016371Y506092D1*
X3236935Y579621D1*
X3332120Y674797D1*
X3506199Y1619838D1*
X3506200Y2518525D1*
X3481200Y3318700D1*
Y5218432D1*
X3456251Y5869833D1*
X3456860Y5872708D1*
X3531380Y6046686D1*
X3556155Y6393525D1*
X3531354Y6641544D1*
X3431766Y7039899D1*
X3307884Y7361999D1*
X3060697Y7633920D1*
X2813743Y7782096D1*
X2366662Y7906293D1*
X1919321Y7931146D1*
X1597151Y7881585D1*
X1126512Y7683427D1*
X854705Y7337474D1*
X656136Y6816230D1*
X631310Y6071813D1*
X730249Y5898483D1*
X731046Y5895655D1*
X731200Y5884514D1*
X731167Y3417788D1*
X656201Y2393259D1*
X656200Y1819402D1*
X731008Y1171078D1*
X879288Y627385D1*
X1121649Y506201D1*
X1144357Y506183D1*
X1781818Y472632D1*
X1776981Y476981D1*
X1770968Y484020D1*
X1766130Y491914D1*
X1762587Y500468D1*
X1760427Y509470D1*
X1759700Y518700D1*
X1760427Y527930D1*
X1762587Y536932D1*
X1766130Y545486D1*
X1770968Y553380D1*
X1776981Y560419D1*
X1784020Y566432D1*
X1790319Y570376D1*
X1785768Y573373D1*
X1779082Y579082D1*
X1773373Y585768D1*
X1768779Y593264D1*
X1765415Y601386D1*
X1763363Y609935D1*
X1762672Y618700D1*
X1763363Y627465D1*
X1765415Y636014D1*
X1768779Y644136D1*
X1773373Y651632D1*
X1779082Y658318D1*
X1785768Y664027D1*
X1793436Y668700D1*
X1785768Y673373D1*
X1779082Y679082D1*
X1773373Y685768D1*
X1768779Y693264D1*
X1765415Y701386D1*
X1763363Y709935D1*
X1762672Y718700D1*
X1763363Y727465D1*
X1765415Y736014D1*
X1768779Y744136D1*
X1773373Y751632D1*
X1779082Y758318D1*
X1785768Y764027D1*
X1793436Y768700D1*
X1785768Y773373D1*
X1779082Y779082D1*
X1773373Y785768D1*
X1768779Y793264D1*
X1765415Y801386D1*
X1763363Y809935D1*
X1762672Y818700D1*
X1763363Y827465D1*
X1765415Y836014D1*
X1768779Y844136D1*
X1773373Y851632D1*
X1779082Y858318D1*
X1785768Y864027D1*
X1793436Y868700D1*
X1785768Y873373D1*
X1779082Y879082D1*
X1773373Y885768D1*
X1768779Y893264D1*
X1765415Y901386D1*
X1763363Y909935D1*
X1762672Y918700D1*
X1763363Y927465D1*
X1765415Y936014D1*
X1768779Y944136D1*
X1773373Y951632D1*
X1779082Y958318D1*
X1785768Y964027D1*
X1793436Y968700D1*
X1785768Y973373D1*
X1779082Y979082D1*
X1773373Y985768D1*
X1768779Y993264D1*
X1765415Y1001386D1*
X1763363Y1009935D1*
X1762672Y1018700D1*
X1763363Y1027465D1*
X1765415Y1036014D1*
X1768779Y1044136D1*
X1773373Y1051632D1*
X1779082Y1058318D1*
X1785768Y1064027D1*
X1793436Y1068700D1*
X1785768Y1073373D1*
X1779082Y1079082D1*
X1773373Y1085768D1*
X1768779Y1093264D1*
X1765415Y1101386D1*
X1763363Y1109935D1*
X1762672Y1118700D1*
X1763363Y1127465D1*
X1765415Y1136014D1*
X1768779Y1144136D1*
X1773373Y1151632D1*
X1779082Y1158318D1*
X1785768Y1164027D1*
X1793436Y1168700D1*
X1785768Y1173373D1*
X1779082Y1179082D1*
X1773373Y1185768D1*
X1768779Y1193264D1*
X1765415Y1201386D1*
X1763363Y1209935D1*
X1762672Y1218700D1*
X1763363Y1227465D1*
X1765415Y1236014D1*
X1768779Y1244136D1*
X1773373Y1251632D1*
X1779082Y1258318D1*
X1785768Y1264027D1*
X1793436Y1268700D1*
X1785768Y1273373D1*
X1779082Y1279082D1*
X1773373Y1285768D1*
X1768779Y1293264D1*
X1765415Y1301386D1*
X1763363Y1309935D1*
X1762672Y1318700D1*
X1763363Y1327465D1*
X1765415Y1336014D1*
X1768779Y1344136D1*
X1773373Y1351632D1*
X1779082Y1358318D1*
X1785768Y1364027D1*
X1793436Y1368700D1*
X1785768Y1373373D1*
X1779082Y1379082D1*
X1773373Y1385768D1*
X1768779Y1393264D1*
X1765415Y1401386D1*
X1763363Y1409935D1*
X1762672Y1418700D1*
X1763363Y1427465D1*
X1765415Y1436014D1*
X1768779Y1444136D1*
X1773373Y1451632D1*
X1779082Y1458318D1*
X1785768Y1464027D1*
X1793436Y1468700D1*
X1785768Y1473373D1*
X1779082Y1479082D1*
X1773373Y1485768D1*
X1768779Y1493264D1*
X1765415Y1501386D1*
X1763363Y1509935D1*
X1762672Y1518700D1*
X1763363Y1527465D1*
X1765415Y1536014D1*
X1768779Y1544136D1*
X1773373Y1551632D1*
X1779082Y1558318D1*
X1785768Y1564027D1*
X1793436Y1568700D1*
X1785768Y1573373D1*
X1779082Y1579082D1*
X1773373Y1585768D1*
X1768779Y1593264D1*
X1765415Y1601386D1*
X1763363Y1609935D1*
X1762672Y1618700D1*
X1763363Y1627465D1*
X1765415Y1636014D1*
X1768779Y1644136D1*
X1773373Y1651632D1*
X1779082Y1658318D1*
X1785768Y1664027D1*
X1793436Y1668700D1*
X1787367Y1672254D1*
X1781561Y1676751D1*
X1776393Y1681969D1*
X1771952Y1687818D1*
X1768314Y1694197D1*
X1765543Y1700998D1*
X1763684Y1708103D1*
X1762771Y1715389D1*
X1762818Y1722733D1*
X1763826Y1730007D1*
X1765776Y1737087D1*
X1768636Y1743852D1*
X1772355Y1750184D1*
X1776871Y1755976D1*
X1782106Y1761125D1*
X1787969Y1765548D1*
X1793431Y1768697D1*
X1785768Y1773373D1*
X1779082Y1779082D1*
X1773373Y1785768D1*
X1768779Y1793264D1*
X1765415Y1801386D1*
X1763363Y1809935D1*
X1762672Y1818700D1*
X1763363Y1827465D1*
X1765415Y1836014D1*
X1768779Y1844136D1*
X1773373Y1851632D1*
X1779082Y1858318D1*
X1785768Y1864027D1*
X1793436Y1868700D1*
X1785768Y1873373D1*
X1779082Y1879082D1*
X1773373Y1885768D1*
X1768779Y1893264D1*
X1765415Y1901386D1*
X1763363Y1909935D1*
X1762672Y1918700D1*
X1763363Y1927465D1*
X1765415Y1936014D1*
X1768779Y1944136D1*
X1773373Y1951632D1*
X1779082Y1958318D1*
X1784054Y1962676D1*
X1762672Y1962672D1*
Y2074728D1*
X1771859D1*
X1863974Y1785700D2*
X1858318Y1779082D1*
X1851632Y1773373D1*
X1843964Y1768700D1*
X1850334Y1764943D1*
X1856109Y1760409D1*
X1861243Y1755157D1*
X1865646Y1749279D1*
X1869243Y1742876D1*
X1871970Y1736058D1*
X1873784Y1728941D1*
X1874650Y1721649D1*
X1874607Y1715028D1*
X1873646Y1707747D1*
X1871742Y1700655D1*
X1868926Y1693872D1*
X1865247Y1687516D1*
X1860770Y1681696D1*
X1855567Y1676511D1*
X1849733Y1672052D1*
X1843973Y1668704D1*
X1851632Y1664027D1*
X1858318Y1658318D1*
X1864027Y1651632D1*
X1868621Y1644136D1*
X1871985Y1636014D1*
X1874037Y1627465D1*
X1874728Y1618700D1*
X1874037Y1609935D1*
X1871985Y1601386D1*
X1868621Y1593264D1*
X1864027Y1585768D1*
X1858318Y1579082D1*
X1851632Y1573373D1*
X1843964Y1568700D1*
X1851632Y1564027D1*
X1858318Y1558318D1*
X1864027Y1551632D1*
X1868621Y1544136D1*
X1871985Y1536014D1*
X1874037Y1527465D1*
X1874728Y1518700D1*
X1874037Y1509935D1*
X1871985Y1501386D1*
X1868621Y1493264D1*
X1864027Y1485768D1*
X1858318Y1479082D1*
X1851632Y1473373D1*
X1843964Y1468700D1*
X1851632Y1464027D1*
X1858318Y1458318D1*
X1864027Y1451632D1*
X1868621Y1444136D1*
X1871985Y1436014D1*
X1874037Y1427465D1*
X1874728Y1418700D1*
X1874037Y1409935D1*
X1871985Y1401386D1*
X1868621Y1393264D1*
X1864027Y1385768D1*
X1858318Y1379082D1*
X1851632Y1373373D1*
X1843964Y1368700D1*
X1851632Y1364027D1*
X1858318Y1358318D1*
X1864027Y1351632D1*
X1868621Y1344136D1*
X1871985Y1336014D1*
X1874037Y1327465D1*
X1874728Y1318700D1*
X1874037Y1309935D1*
X1871985Y1301386D1*
X1868621Y1293264D1*
X1864027Y1285768D1*
X1858318Y1279082D1*
X1851632Y1273373D1*
X1843964Y1268700D1*
X1851632Y1264027D1*
X1858318Y1258318D1*
X1864027Y1251632D1*
X1868621Y1244136D1*
X1871985Y1236014D1*
X1874037Y1227465D1*
X1874728Y1218700D1*
X1874037Y1209935D1*
X1871985Y1201386D1*
X1868621Y1193264D1*
X1864027Y1185768D1*
X1858318Y1179082D1*
X1851632Y1173373D1*
X1843964Y1168700D1*
X1851632Y1164027D1*
X1858318Y1158318D1*
X1864027Y1151632D1*
X1868621Y1144136D1*
X1871985Y1136014D1*
X1874037Y1127465D1*
X1874728Y1118700D1*
X1874037Y1109935D1*
X1871985Y1101386D1*
X1868621Y1093264D1*
X1864027Y1085768D1*
X1858318Y1079082D1*
X1851632Y1073373D1*
X1843964Y1068700D1*
X1851632Y1064027D1*
X1858318Y1058318D1*
X1864027Y1051632D1*
X1868621Y1044136D1*
X1871985Y1036014D1*
X1874037Y1027465D1*
X1874728Y1018700D1*
X1874037Y1009935D1*
X1871985Y1001386D1*
X1868621Y993264D1*
X1864027Y985768D1*
X1858318Y979082D1*
X1851632Y973373D1*
X1843964Y968700D1*
X1851632Y964027D1*
X1858318Y958318D1*
X1864027Y951632D1*
X1868621Y944136D1*
X1871985Y936014D1*
X1874037Y927465D1*
X1874728Y918700D1*
X1874037Y909935D1*
X1871985Y901386D1*
X1868621Y893264D1*
X1864027Y885768D1*
X1858318Y879082D1*
X1851632Y873373D1*
X1843964Y868700D1*
X1851632Y864027D1*
X1858318Y858318D1*
X1864027Y851632D1*
X1868621Y844136D1*
X1871985Y836014D1*
X1874037Y827465D1*
X1874728Y818700D1*
X1874037Y809935D1*
X1871985Y801386D1*
X1868621Y793264D1*
X1864027Y785768D1*
X1858318Y779082D1*
X1851632Y773373D1*
X1843964Y768700D1*
X1851632Y764027D1*
X1858318Y758318D1*
X1864027Y751632D1*
X1868621Y744136D1*
X1871985Y736014D1*
X1874037Y727465D1*
X1874728Y718700D1*
X1874037Y709935D1*
X1871985Y701386D1*
X1868621Y693264D1*
X1864027Y685768D1*
X1858318Y679082D1*
X1851632Y673373D1*
X1843964Y668700D1*
X1851632Y664027D1*
X1858318Y658318D1*
X1864027Y651632D1*
X1868621Y644136D1*
X1871985Y636014D1*
X1874037Y627465D1*
X1874728Y618700D1*
X1874037Y609935D1*
X1871985Y601386D1*
X1868621Y593264D1*
X1864027Y585768D1*
X1858318Y579082D1*
X1851632Y573373D1*
X1847090Y570434D1*
X1853380Y566432D1*
X1860419Y560419D1*
X1866432Y553380D1*
X1871270Y545486D1*
X1874813Y536932D1*
X1876973Y527930D1*
X1877700Y518700D1*
X1876973Y509470D1*
X1874813Y500468D1*
X1871270Y491914D1*
X1866432Y484020D1*
X1860419Y476981D1*
X1853380Y470968D1*
X1850729Y469006D1*
X2093697Y456217D1*
X2382869Y471850D1*
X2376981Y476981D1*
X2370968Y484020D1*
X2366130Y491914D1*
X2362587Y500468D1*
X2360427Y509470D1*
X2359700Y518700D1*
X2360427Y527930D1*
X2362587Y536932D1*
X2366130Y545486D1*
X2370968Y553380D1*
X2376981Y560419D1*
X2384020Y566432D1*
X2390319Y570376D1*
X2385768Y573373D1*
X2379082Y579082D1*
X2373373Y585768D1*
X2368779Y593264D1*
X2365415Y601386D1*
X2363363Y609935D1*
X2362672Y618700D1*
X2363363Y627465D1*
X2365415Y636014D1*
X2368779Y644136D1*
X2373373Y651632D1*
X2379082Y658318D1*
X2385768Y664027D1*
X2393436Y668700D1*
X2385768Y673373D1*
X2379082Y679082D1*
X2373373Y685768D1*
X2368779Y693264D1*
X2365415Y701386D1*
X2363363Y709935D1*
X2362672Y718700D1*
X2363363Y727465D1*
X2365415Y736014D1*
X2368779Y744136D1*
X2373373Y751632D1*
X2379082Y758318D1*
X2385768Y764027D1*
X2393436Y768700D1*
X2385768Y773373D1*
X2379082Y779082D1*
X2373373Y785768D1*
X2368779Y793264D1*
X2365415Y801386D1*
X2363363Y809935D1*
X2362672Y818700D1*
X2363363Y827465D1*
X2365415Y836014D1*
X2368779Y844136D1*
X2373373Y851632D1*
X2379082Y858318D1*
X2385768Y864027D1*
X2393436Y868700D1*
X2385768Y873373D1*
X2379082Y879082D1*
X2373373Y885768D1*
X2368779Y893264D1*
X2365415Y901386D1*
X2363363Y909935D1*
X2362672Y918700D1*
X2363363Y927465D1*
X2365415Y936014D1*
X2368779Y944136D1*
X2373373Y951632D1*
X2379082Y958318D1*
X2385768Y964027D1*
X2393436Y968700D1*
X2385768Y973373D1*
X2379082Y979082D1*
X2373373Y985768D1*
X2368779Y993264D1*
X2365415Y1001386D1*
X2363363Y1009935D1*
X2362672Y1018700D1*
X2363363Y1027465D1*
X2365415Y1036014D1*
X2368779Y1044136D1*
X2373373Y1051632D1*
X2379082Y1058318D1*
X2385768Y1064027D1*
X2393436Y1068700D1*
X2385768Y1073373D1*
X2379082Y1079082D1*
X2373373Y1085768D1*
X2368779Y1093264D1*
X2365415Y1101386D1*
X2363363Y1109935D1*
X2362672Y1118700D1*
X2363363Y1127465D1*
X2365415Y1136014D1*
X2368779Y1144136D1*
X2373373Y1151632D1*
X2379082Y1158318D1*
X2385768Y1164027D1*
X2393436Y1168700D1*
X2385768Y1173373D1*
X2379082Y1179082D1*
X2373373Y1185768D1*
X2368779Y1193264D1*
X2365415Y1201386D1*
X2363363Y1209935D1*
X2362672Y1218700D1*
X2363363Y1227465D1*
X2365415Y1236014D1*
X2368779Y1244136D1*
X2373373Y1251632D1*
X2379082Y1258318D1*
X2385768Y1264027D1*
X2393436Y1268700D1*
X2385768Y1273373D1*
X2379082Y1279082D1*
X2373373Y1285768D1*
X2368779Y1293264D1*
X2365415Y1301386D1*
X2363363Y1309935D1*
X2362672Y1318700D1*
X2363363Y1327465D1*
X2365415Y1336014D1*
X2368779Y1344136D1*
X2373373Y1351632D1*
X2379082Y1358318D1*
X2385768Y1364027D1*
X2393436Y1368700D1*
X2385768Y1373373D1*
X2379082Y1379082D1*
X2373373Y1385768D1*
X2368779Y1393264D1*
X2365415Y1401386D1*
X2363363Y1409935D1*
X2362672Y1418700D1*
X2363363Y1427465D1*
X2365415Y1436014D1*
X2368779Y1444136D1*
X2373373Y1451632D1*
X2379082Y1458318D1*
X2385768Y1464027D1*
X2393436Y1468700D1*
X2385768Y1473373D1*
X2379082Y1479082D1*
X2373373Y1485768D1*
X2368779Y1493264D1*
X2365415Y1501386D1*
X2363363Y1509935D1*
X2362672Y1518700D1*
X2363363Y1527465D1*
X2365415Y1536014D1*
X2368779Y1544136D1*
X2373373Y1551632D1*
X2379082Y1558318D1*
X2385768Y1564027D1*
X2393436Y1568700D1*
X2385768Y1573373D1*
X2379082Y1579082D1*
X2373373Y1585768D1*
X2368779Y1593264D1*
X2365415Y1601386D1*
X2363363Y1609935D1*
X2362672Y1618700D1*
X2363363Y1627465D1*
X2365415Y1636014D1*
X2368779Y1644136D1*
X2373373Y1651632D1*
X2379082Y1658318D1*
X2385768Y1664027D1*
X2393436Y1668700D1*
X2385768Y1673373D1*
X2379082Y1679082D1*
X2373373Y1685768D1*
X2368779Y1693264D1*
X2365415Y1701386D1*
X2363363Y1709935D1*
X2362672Y1718700D1*
X2363363Y1727465D1*
X2365415Y1736014D1*
X2368779Y1744136D1*
X2373373Y1751632D1*
X2379082Y1758318D1*
X2385768Y1764027D1*
X2393436Y1768700D1*
X2385768Y1773373D1*
X2379082Y1779082D1*
X2373426Y1785700D1*
X1863966Y1785704D1*
X2443964Y1868700D2*
X2451632Y1864027D1*
X2458318Y1858318D1*
X2464027Y1851632D1*
X2467201Y1846670D1*
X2467191Y1890634D1*
X2463104Y1884533D1*
X2458254Y1879019D1*
X2452724Y1874186D1*
X2446609Y1870119D1*
X2443973Y1868704D1*
X2443981Y1968699D2*
X2450334Y1964943D1*
X2456109Y1960409D1*
X2461243Y1955157D1*
X2465646Y1949279D1*
X2467199Y1946738D1*
X2467200Y1990644D1*
X2464027Y1985768D1*
X2458318Y1979082D1*
X2451632Y1973373D1*
X2443964Y1968700D1*
X1220041Y714659D2*
X1218777Y706678D1*
X1216280Y698991D1*
X1212611Y691792D1*
X1207861Y685254D1*
X1202146Y679539D1*
X1195608Y674789D1*
X1188409Y671120D1*
X1185903Y670196D1*
X1220200Y670200D1*
Y567200D1*
X1117200D1*
Y670200D1*
X1151398D1*
X1145319Y672813D1*
X1138430Y677036D1*
X1132284Y682284D1*
X1127036Y688430D1*
X1122813Y695319D1*
X1119721Y702785D1*
X1117834Y710644D1*
X1117200Y718700D1*
X1117834Y726756D1*
X1119721Y734615D1*
X1122813Y742081D1*
X1127036Y748970D1*
X1132284Y755116D1*
X1138430Y760364D1*
X1145319Y764587D1*
X1152785Y767679D1*
X1160644Y769566D1*
X1168700Y770200D1*
X1176756Y769566D1*
X1184615Y767679D1*
X1192081Y764587D1*
X1198970Y760364D1*
X1205116Y755116D1*
X1210364Y748970D1*
X1214587Y742081D1*
X1217679Y734615D1*
X1219566Y726756D1*
X1220200Y718700D1*
X1220041Y714659D1*
X1295041Y7514659D2*
X1293777Y7506678D1*
X1291280Y7498991D1*
X1287611Y7491792D1*
X1282861Y7485254D1*
X1277146Y7479539D1*
X1270608Y7474789D1*
X1263409Y7471120D1*
X1260903Y7470196D1*
X1295200Y7470200D1*
Y7367200D1*
X1192200D1*
Y7470200D1*
X1226384D1*
X1220319Y7472813D1*
X1213430Y7477036D1*
X1207284Y7482284D1*
X1202036Y7488430D1*
X1197813Y7495319D1*
X1194721Y7502785D1*
X1192834Y7510644D1*
X1192200Y7518700D1*
X1192834Y7526756D1*
X1194721Y7534615D1*
X1197813Y7542081D1*
X1202036Y7548970D1*
X1207284Y7555116D1*
X1213430Y7560364D1*
X1220319Y7564587D1*
X1227785Y7567679D1*
X1235644Y7569566D1*
X1243700Y7570200D1*
X1251756Y7569566D1*
X1259615Y7567679D1*
X1267081Y7564587D1*
X1273970Y7560364D1*
X1280116Y7555116D1*
X1285364Y7548970D1*
X1289587Y7542081D1*
X1292679Y7534615D1*
X1294566Y7526756D1*
X1295200Y7518700D1*
X1295041Y7514659D1*
X3057541Y627159D2*
X3056277Y619178D1*
X3053780Y611491D1*
X3050111Y604292D1*
X3045361Y597754D1*
X3039646Y592039D1*
X3033108Y587289D1*
X3025909Y583620D1*
X3018222Y581123D1*
X3010241Y579859D1*
X3002159D1*
X2994178Y581123D1*
X2986491Y583620D1*
X2979292Y587289D1*
X2972754Y592039D1*
X2967039Y597754D1*
X2962289Y604292D1*
X2958620Y611491D1*
X2956123Y619178D1*
X2954859Y627159D1*
Y635241D1*
X2956123Y643222D1*
X2958620Y650909D1*
X2962289Y658108D1*
X2967039Y664646D1*
X2972754Y670361D1*
X2979292Y675111D1*
X2986491Y678780D1*
X2988997Y679704D1*
X2954700Y679700D1*
Y782700D1*
X3057700D1*
Y679700D1*
X3023502D1*
X3029581Y677087D1*
X3036470Y672864D1*
X3042616Y667616D1*
X3047864Y661470D1*
X3052087Y654581D1*
X3055179Y647115D1*
X3057066Y639256D1*
X3057700Y631200D1*
X3057541Y627159D1*
X2970041Y7514659D2*
X2968777Y7506678D1*
X2966280Y7498991D1*
X2962611Y7491792D1*
X2957861Y7485254D1*
X2952146Y7479539D1*
X2945608Y7474789D1*
X2938409Y7471120D1*
X2935903Y7470196D1*
X2970200Y7470200D1*
Y7367200D1*
X2867200D1*
Y7470200D1*
X2901384D1*
X2895319Y7472813D1*
X2888430Y7477036D1*
X2882284Y7482284D1*
X2877036Y7488430D1*
X2872813Y7495319D1*
X2869721Y7502785D1*
X2867834Y7510644D1*
X2867200Y7518700D1*
X2867834Y7526756D1*
X2869721Y7534615D1*
X2872813Y7542081D1*
X2877036Y7548970D1*
X2882284Y7555116D1*
X2888430Y7560364D1*
X2895319Y7564587D1*
X2902785Y7567679D1*
X2910644Y7569566D1*
X2918700Y7570200D1*
X2926756Y7569566D1*
X2934615Y7567679D1*
X2942081Y7564587D1*
X2948970Y7560364D1*
X2955116Y7555116D1*
X2960364Y7548970D1*
X2964587Y7542081D1*
X2967679Y7534615D1*
X2969566Y7526756D1*
X2970200Y7518700D1*
X2970041Y7514659D1*
X1595041Y7614659D2*
X1593777Y7606678D1*
X1591280Y7598991D1*
X1587611Y7591792D1*
X1582861Y7585254D1*
X1577146Y7579539D1*
X1570608Y7574789D1*
X1563409Y7571120D1*
X1560903Y7570196D1*
X1595200Y7570200D1*
Y7467200D1*
X1492200D1*
Y7570200D1*
X1526398D1*
X1520319Y7572813D1*
X1513430Y7577036D1*
X1507284Y7582284D1*
X1502036Y7588430D1*
X1497813Y7595319D1*
X1494721Y7602785D1*
X1492834Y7610644D1*
X1492200Y7618700D1*
X1492834Y7626756D1*
X1494721Y7634615D1*
X1497813Y7642081D1*
X1502036Y7648970D1*
X1507284Y7655116D1*
X1513430Y7660364D1*
X1520319Y7664587D1*
X1527785Y7667679D1*
X1535644Y7669566D1*
X1543700Y7670200D1*
X1551756Y7669566D1*
X1559615Y7667679D1*
X1567081Y7664587D1*
X1573970Y7660364D1*
X1580116Y7655116D1*
X1585364Y7648970D1*
X1589587Y7642081D1*
X1592679Y7634615D1*
X1594566Y7626756D1*
X1595200Y7618700D1*
X1595041Y7614659D1*
X2670041D2*
X2668777Y7606678D1*
X2666280Y7598991D1*
X2662611Y7591792D1*
X2657861Y7585254D1*
X2652146Y7579539D1*
X2645608Y7574789D1*
X2638409Y7571120D1*
X2635903Y7570196D1*
X2670200Y7570200D1*
Y7467200D1*
X2567200D1*
Y7570200D1*
X2601384D1*
X2595319Y7572813D1*
X2588430Y7577036D1*
X2582284Y7582284D1*
X2577036Y7588430D1*
X2572813Y7595319D1*
X2569721Y7602785D1*
X2567834Y7610644D1*
X2567200Y7618700D1*
X2567834Y7626756D1*
X2569721Y7634615D1*
X2572813Y7642081D1*
X2577036Y7648970D1*
X2582284Y7655116D1*
X2588430Y7660364D1*
X2595319Y7664587D1*
X2602785Y7667679D1*
X2610644Y7669566D1*
X2618700Y7670200D1*
X2626756Y7669566D1*
X2634615Y7667679D1*
X2642081Y7664587D1*
X2648970Y7660364D1*
X2655116Y7655116D1*
X2660364Y7648970D1*
X2664587Y7642081D1*
X2667679Y7634615D1*
X2669566Y7626756D1*
X2670200Y7618700D1*
X2670041Y7614659D1*
X1520041Y714659D2*
X1518777Y706678D1*
X1516280Y698991D1*
X1512611Y691792D1*
X1507861Y685254D1*
X1502146Y679539D1*
X1495608Y674789D1*
X1488409Y671120D1*
X1485903Y670196D1*
X1520200Y670200D1*
Y567200D1*
X1417200D1*
Y670200D1*
X1451398D1*
X1445319Y672813D1*
X1438430Y677036D1*
X1432284Y682284D1*
X1427036Y688430D1*
X1422813Y695319D1*
X1419721Y702785D1*
X1417834Y710644D1*
X1417200Y718700D1*
X1417834Y726756D1*
X1419721Y734615D1*
X1422813Y742081D1*
X1427036Y748970D1*
X1432284Y755116D1*
X1438430Y760364D1*
X1445319Y764587D1*
X1452785Y767679D1*
X1460644Y769566D1*
X1468700Y770200D1*
X1476756Y769566D1*
X1484615Y767679D1*
X1492081Y764587D1*
X1498970Y760364D1*
X1505116Y755116D1*
X1510364Y748970D1*
X1514587Y742081D1*
X1517679Y734615D1*
X1519566Y726756D1*
X1520200Y718700D1*
X1520041Y714659D1*
X2757541Y627159D2*
X2756277Y619178D1*
X2753780Y611491D1*
X2750111Y604292D1*
X2745361Y597754D1*
X2739646Y592039D1*
X2733108Y587289D1*
X2725909Y583620D1*
X2718222Y581123D1*
X2710241Y579859D1*
X2702159D1*
X2694178Y581123D1*
X2686491Y583620D1*
X2679292Y587289D1*
X2672754Y592039D1*
X2667039Y597754D1*
X2662289Y604292D1*
X2658620Y611491D1*
X2656123Y619178D1*
X2654859Y627159D1*
Y635241D1*
X2656123Y643222D1*
X2658620Y650909D1*
X2662289Y658108D1*
X2667039Y664646D1*
X2672754Y670361D1*
X2679292Y675111D1*
X2686491Y678780D1*
X2688997Y679704D1*
X2654700Y679700D1*
Y782700D1*
X2757700D1*
Y679700D1*
X2723516D1*
X2729581Y677087D1*
X2736470Y672864D1*
X2742616Y667616D1*
X2747864Y661470D1*
X2752087Y654581D1*
X2755179Y647115D1*
X2757066Y639256D1*
X2757700Y631200D1*
X2757541Y627159D1*
X2264864Y2866863D2*
X2263990Y2859574D1*
X2261973Y2852515D1*
X2258863Y2845865D1*
X2254738Y2839792D1*
X2249704Y2834448D1*
X2243888Y2829969D1*
X2237435Y2826469D1*
X2230508Y2824035D1*
X2223284Y2822728D1*
X2215944Y2822582D1*
X2208674Y2823600D1*
X2201657Y2825758D1*
X2195070Y2829001D1*
X2189081Y2833245D1*
X2183838Y2838384D1*
X2179476Y2844289D1*
X2176104Y2850810D1*
X2173808Y2857783D1*
X2172646Y2865032D1*
Y2872373D1*
X2173809Y2879621D1*
X2176106Y2886595D1*
X2179478Y2893116D1*
X2183840Y2899020D1*
X2189083Y2904159D1*
X2195074Y2908402D1*
X2201662Y2911644D1*
X2208679Y2913800D1*
X2215949Y2914818D1*
X2223289Y2914671D1*
X2230514Y2913364D1*
X2237439Y2910930D1*
X2243892Y2907428D1*
X2249708Y2902948D1*
X2254742Y2897604D1*
X2258865Y2891531D1*
X2261974Y2884880D1*
X2263991Y2877821D1*
X2264864Y2870532D1*
Y2866863D1*
X2008852Y2865075D2*
X2007718Y2857915D1*
X2005478Y2851020D1*
X2002187Y2844561D1*
X1997926Y2838696D1*
X1992798Y2833569D1*
X1986934Y2829308D1*
X1980474Y2826016D1*
X1973579Y2823776D1*
X1966419Y2822642D1*
X1959170D1*
X1952010Y2823776D1*
X1945115Y2826016D1*
X1938655Y2829308D1*
X1932791Y2833569D1*
X1927663Y2838696D1*
X1923402Y2844561D1*
X1920111Y2851020D1*
X1917871Y2857915D1*
X1916737Y2865075D1*
Y2872325D1*
X1917871Y2879485D1*
X1920111Y2886380D1*
X1923402Y2892839D1*
X1927663Y2898704D1*
X1932791Y2903831D1*
X1938655Y2908092D1*
X1945115Y2911384D1*
X1952010Y2913624D1*
X1959170Y2914758D1*
X1966419D1*
X1973579Y2913624D1*
X1980474Y2911384D1*
X1986934Y2908092D1*
X1992798Y2903831D1*
X1997926Y2898704D1*
X2002187Y2892839D1*
X2005478Y2886380D1*
X2007718Y2879485D1*
X2008852Y2872325D1*
Y2865075D1*
X1225025Y1114267D2*
X1223638Y1105510D1*
X1220899Y1097078D1*
X1216875Y1089179D1*
X1211663Y1082006D1*
X1205394Y1075737D1*
X1198221Y1070525D1*
X1190322Y1066501D1*
X1181890Y1063762D1*
X1173133Y1062375D1*
X1164267D1*
X1155510Y1063762D1*
X1147078Y1066501D1*
X1139179Y1070525D1*
X1132006Y1075737D1*
X1125737Y1082006D1*
X1120525Y1089179D1*
X1116501Y1097078D1*
X1113762Y1105510D1*
X1112375Y1114267D1*
Y1123133D1*
X1113762Y1131890D1*
X1116501Y1140322D1*
X1120525Y1148221D1*
X1125737Y1155394D1*
X1132006Y1161663D1*
X1139179Y1166875D1*
X1147078Y1170899D1*
X1155510Y1173638D1*
X1164267Y1175025D1*
X1173133D1*
X1181890Y1173638D1*
X1190322Y1170899D1*
X1198221Y1166875D1*
X1205394Y1161663D1*
X1211663Y1155394D1*
X1216875Y1148221D1*
X1220899Y1140322D1*
X1223638Y1131890D1*
X1225025Y1123133D1*
Y1114267D1*
Y1514267D2*
X1223638Y1505510D1*
X1220899Y1497078D1*
X1216875Y1489179D1*
X1211663Y1482006D1*
X1205394Y1475737D1*
X1198221Y1470525D1*
X1190322Y1466501D1*
X1181890Y1463762D1*
X1173133Y1462375D1*
X1164267D1*
X1155510Y1463762D1*
X1147078Y1466501D1*
X1139179Y1470525D1*
X1132006Y1475737D1*
X1125737Y1482006D1*
X1120525Y1489179D1*
X1116501Y1497078D1*
X1113762Y1505510D1*
X1112375Y1514267D1*
Y1523133D1*
X1113762Y1531890D1*
X1116501Y1540322D1*
X1120525Y1548221D1*
X1125737Y1555394D1*
X1132006Y1561663D1*
X1139179Y1566875D1*
X1147078Y1570899D1*
X1155510Y1573638D1*
X1164267Y1575025D1*
X1173133D1*
X1181890Y1573638D1*
X1190322Y1570899D1*
X1198221Y1566875D1*
X1205394Y1561663D1*
X1211663Y1555394D1*
X1216875Y1548221D1*
X1220899Y1540322D1*
X1223638Y1531890D1*
X1225025Y1523133D1*
Y1514267D1*
X3062525Y1126767D2*
X3061138Y1118010D1*
X3058399Y1109578D1*
X3054375Y1101679D1*
X3049163Y1094506D1*
X3042894Y1088237D1*
X3035721Y1083025D1*
X3027822Y1079001D1*
X3019390Y1076262D1*
X3010633Y1074875D1*
X3001767D1*
X2993010Y1076262D1*
X2984578Y1079001D1*
X2976679Y1083025D1*
X2969506Y1088237D1*
X2963237Y1094506D1*
X2958025Y1101679D1*
X2954001Y1109578D1*
X2951262Y1118010D1*
X2949875Y1126767D1*
Y1135633D1*
X2951262Y1144390D1*
X2954001Y1152822D1*
X2958025Y1160721D1*
X2963237Y1167894D1*
X2969506Y1174163D1*
X2976679Y1179375D1*
X2984578Y1183399D1*
X2993010Y1186138D1*
X3001767Y1187525D1*
X3010633D1*
X3019390Y1186138D1*
X3027822Y1183399D1*
X3035721Y1179375D1*
X3042894Y1174163D1*
X3049163Y1167894D1*
X3054375Y1160721D1*
X3058399Y1152822D1*
X3061138Y1144390D1*
X3062525Y1135633D1*
Y1126767D1*
Y1526767D2*
X3061138Y1518010D1*
X3058399Y1509578D1*
X3054375Y1501679D1*
X3049163Y1494506D1*
X3042894Y1488237D1*
X3035721Y1483025D1*
X3027822Y1479001D1*
X3019390Y1476262D1*
X3010633Y1474875D1*
X3001767D1*
X2993010Y1476262D1*
X2984578Y1479001D1*
X2976679Y1483025D1*
X2969506Y1488237D1*
X2963237Y1494506D1*
X2958025Y1501679D1*
X2954001Y1509578D1*
X2951262Y1518010D1*
X2949875Y1526767D1*
Y1535633D1*
X2951262Y1544390D1*
X2954001Y1552822D1*
X2958025Y1560721D1*
X2963237Y1567894D1*
X2969506Y1574163D1*
X2976679Y1579375D1*
X2984578Y1583399D1*
X2993010Y1586138D1*
X3001767Y1587525D1*
X3010633D1*
X3019390Y1586138D1*
X3027822Y1583399D1*
X3035721Y1579375D1*
X3042894Y1574163D1*
X3049163Y1567894D1*
X3054375Y1560721D1*
X3058399Y1552822D1*
X3061138Y1544390D1*
X3062525Y1535633D1*
Y1526767D1*
X1525025Y7214267D2*
X1523638Y7205510D1*
X1520899Y7197078D1*
X1516875Y7189179D1*
X1511663Y7182006D1*
X1505394Y7175737D1*
X1498221Y7170525D1*
X1490322Y7166501D1*
X1481890Y7163762D1*
X1473133Y7162375D1*
X1464267D1*
X1455510Y7163762D1*
X1447078Y7166501D1*
X1439179Y7170525D1*
X1432006Y7175737D1*
X1425737Y7182006D1*
X1420525Y7189179D1*
X1416501Y7197078D1*
X1413762Y7205510D1*
X1412375Y7214267D1*
Y7223133D1*
X1413762Y7231890D1*
X1416501Y7240322D1*
X1420525Y7248221D1*
X1425737Y7255394D1*
X1432006Y7261663D1*
X1439179Y7266875D1*
X1447078Y7270899D1*
X1455510Y7273638D1*
X1464267Y7275025D1*
X1473133D1*
X1481890Y7273638D1*
X1490322Y7270899D1*
X1498221Y7266875D1*
X1505394Y7261663D1*
X1511663Y7255394D1*
X1516875Y7248221D1*
X1520899Y7240322D1*
X1523638Y7231890D1*
X1525025Y7223133D1*
Y7214267D1*
Y6814267D2*
X1523638Y6805510D1*
X1520899Y6797078D1*
X1516875Y6789179D1*
X1511663Y6782006D1*
X1505394Y6775737D1*
X1498221Y6770525D1*
X1490322Y6766501D1*
X1481890Y6763762D1*
X1473133Y6762375D1*
X1464267D1*
X1455510Y6763762D1*
X1447078Y6766501D1*
X1439179Y6770525D1*
X1432006Y6775737D1*
X1425737Y6782006D1*
X1420525Y6789179D1*
X1416501Y6797078D1*
X1413762Y6805510D1*
X1412375Y6814267D1*
Y6823133D1*
X1413762Y6831890D1*
X1416501Y6840322D1*
X1420525Y6848221D1*
X1425737Y6855394D1*
X1432006Y6861663D1*
X1439179Y6866875D1*
X1447078Y6870899D1*
X1455510Y6873638D1*
X1464267Y6875025D1*
X1473133D1*
X1481890Y6873638D1*
X1490322Y6870899D1*
X1498221Y6866875D1*
X1505394Y6861663D1*
X1511663Y6855394D1*
X1516875Y6848221D1*
X1520899Y6840322D1*
X1523638Y6831890D1*
X1525025Y6823133D1*
Y6814267D1*
Y1114267D2*
X1523638Y1105510D1*
X1520899Y1097078D1*
X1516875Y1089179D1*
X1511663Y1082006D1*
X1505394Y1075737D1*
X1498221Y1070525D1*
X1490322Y1066501D1*
X1481890Y1063762D1*
X1473133Y1062375D1*
X1464267D1*
X1455510Y1063762D1*
X1447078Y1066501D1*
X1439179Y1070525D1*
X1432006Y1075737D1*
X1425737Y1082006D1*
X1420525Y1089179D1*
X1416501Y1097078D1*
X1413762Y1105510D1*
X1412375Y1114267D1*
Y1123133D1*
X1413762Y1131890D1*
X1416501Y1140322D1*
X1420525Y1148221D1*
X1425737Y1155394D1*
X1432006Y1161663D1*
X1439179Y1166875D1*
X1447078Y1170899D1*
X1455510Y1173638D1*
X1464267Y1175025D1*
X1473133D1*
X1481890Y1173638D1*
X1490322Y1170899D1*
X1498221Y1166875D1*
X1505394Y1161663D1*
X1511663Y1155394D1*
X1516875Y1148221D1*
X1520899Y1140322D1*
X1523638Y1131890D1*
X1525025Y1123133D1*
Y1114267D1*
Y1514267D2*
X1523638Y1505510D1*
X1520899Y1497078D1*
X1516875Y1489179D1*
X1511663Y1482006D1*
X1505394Y1475737D1*
X1498221Y1470525D1*
X1490322Y1466501D1*
X1481890Y1463762D1*
X1473133Y1462375D1*
X1464267D1*
X1455510Y1463762D1*
X1447078Y1466501D1*
X1439179Y1470525D1*
X1432006Y1475737D1*
X1425737Y1482006D1*
X1420525Y1489179D1*
X1416501Y1497078D1*
X1413762Y1505510D1*
X1412375Y1514267D1*
Y1523133D1*
X1413762Y1531890D1*
X1416501Y1540322D1*
X1420525Y1548221D1*
X1425737Y1555394D1*
X1432006Y1561663D1*
X1439179Y1566875D1*
X1447078Y1570899D1*
X1455510Y1573638D1*
X1464267Y1575025D1*
X1473133D1*
X1481890Y1573638D1*
X1490322Y1570899D1*
X1498221Y1566875D1*
X1505394Y1561663D1*
X1511663Y1555394D1*
X1516875Y1548221D1*
X1520899Y1540322D1*
X1523638Y1531890D1*
X1525025Y1523133D1*
Y1514267D1*
X1725025Y4564267D2*
X1723638Y4555510D1*
X1720899Y4547078D1*
X1716875Y4539179D1*
X1711663Y4532006D1*
X1705394Y4525737D1*
X1698221Y4520525D1*
X1690322Y4516501D1*
X1681890Y4513762D1*
X1673133Y4512375D1*
X1664267D1*
X1655510Y4513762D1*
X1647078Y4516501D1*
X1639179Y4520525D1*
X1632006Y4525737D1*
X1625737Y4532006D1*
X1620525Y4539179D1*
X1616501Y4547078D1*
X1613762Y4555510D1*
X1612375Y4564267D1*
Y4573133D1*
X1613762Y4581890D1*
X1616501Y4590322D1*
X1620525Y4598221D1*
X1625737Y4605394D1*
X1632006Y4611663D1*
X1639179Y4616875D1*
X1647078Y4620899D1*
X1655510Y4623638D1*
X1664267Y4625025D1*
X1673133D1*
X1681890Y4623638D1*
X1690322Y4620899D1*
X1698221Y4616875D1*
X1705394Y4611663D1*
X1711663Y4605394D1*
X1716875Y4598221D1*
X1720899Y4590322D1*
X1723638Y4581890D1*
X1725025Y4573133D1*
Y4564267D1*
X1725170Y4166863D2*
X1724455Y4159554D1*
X1722797Y4152399D1*
X1720226Y4145520D1*
X1716784Y4139033D1*
X1712531Y4133046D1*
X1707536Y4127663D1*
X1701885Y4122973D1*
X1695674Y4119054D1*
X1689006Y4115976D1*
X1681997Y4113787D1*
X1674762Y4112525D1*
X1667424Y4112214D1*
X1660108Y4112857D1*
X1652938Y4114443D1*
X1646033Y4116945D1*
X1639512Y4120323D1*
X1633483Y4124518D1*
X1628050Y4129459D1*
X1623304Y4135062D1*
X1619325Y4141235D1*
X1616179Y4147871D1*
X1613922Y4154859D1*
X1612588Y4162082D1*
X1612204Y4169415D1*
X1612775Y4176737D1*
X1614289Y4183923D1*
X1616724Y4190852D1*
X1620036Y4197406D1*
X1624170Y4203476D1*
X1629057Y4208957D1*
X1634613Y4213759D1*
X1640746Y4217800D1*
X1647351Y4221011D1*
X1654317Y4223338D1*
X1661524Y4224742D1*
X1668855Y4225200D1*
X1676182Y4224703D1*
X1683382Y4223259D1*
X1690335Y4220894D1*
X1696922Y4217646D1*
X1703032Y4213573D1*
X1708562Y4208741D1*
X1713419Y4203231D1*
X1717520Y4197140D1*
X1720797Y4190567D1*
X1723193Y4183625D1*
X1724669Y4176431D1*
X1725200Y4168700D1*
X1725170Y4166863D1*
X3150025Y4564267D2*
X3148638Y4555510D1*
X3145899Y4547078D1*
X3141875Y4539179D1*
X3136663Y4532006D1*
X3130394Y4525737D1*
X3123221Y4520525D1*
X3115322Y4516501D1*
X3106890Y4513762D1*
X3098133Y4512375D1*
X3089267D1*
X3080510Y4513762D1*
X3072078Y4516501D1*
X3064179Y4520525D1*
X3057006Y4525737D1*
X3050737Y4532006D1*
X3045525Y4539179D1*
X3041501Y4547078D1*
X3038762Y4555510D1*
X3037375Y4564267D1*
Y4573133D1*
X3038762Y4581890D1*
X3041501Y4590322D1*
X3045525Y4598221D1*
X3050737Y4605394D1*
X3057006Y4611663D1*
X3064179Y4616875D1*
X3072078Y4620899D1*
X3080510Y4623638D1*
X3089267Y4625025D1*
X3098133D1*
X3106890Y4623638D1*
X3115322Y4620899D1*
X3123221Y4616875D1*
X3130394Y4611663D1*
X3136663Y4605394D1*
X3141875Y4598221D1*
X3145899Y4590322D1*
X3148638Y4581890D1*
X3150025Y4573133D1*
Y4564267D1*
X3150170Y4166863D2*
X3149455Y4159554D1*
X3147797Y4152399D1*
X3145226Y4145520D1*
X3141784Y4139033D1*
X3137531Y4133046D1*
X3132536Y4127663D1*
X3126885Y4122973D1*
X3120674Y4119054D1*
X3114006Y4115976D1*
X3106997Y4113787D1*
X3099762Y4112525D1*
X3092424Y4112214D1*
X3085108Y4112857D1*
X3077938Y4114443D1*
X3071033Y4116945D1*
X3064512Y4120323D1*
X3058483Y4124518D1*
X3053050Y4129459D1*
X3048304Y4135062D1*
X3044325Y4141235D1*
X3041179Y4147871D1*
X3038922Y4154859D1*
X3037588Y4162082D1*
X3037204Y4169415D1*
X3037775Y4176737D1*
X3039289Y4183923D1*
X3041724Y4190852D1*
X3045036Y4197406D1*
X3049170Y4203476D1*
X3054057Y4208957D1*
X3059613Y4213759D1*
X3065746Y4217800D1*
X3072351Y4221011D1*
X3079317Y4223338D1*
X3086524Y4224742D1*
X3093855Y4225200D1*
X3101182Y4224703D1*
X3108382Y4223259D1*
X3115335Y4220894D1*
X3121922Y4217646D1*
X3128032Y4213573D1*
X3133562Y4208741D1*
X3138419Y4203231D1*
X3142520Y4197140D1*
X3145797Y4190567D1*
X3148193Y4183625D1*
X3149669Y4176431D1*
X3150200Y4168700D1*
X3150170Y4166863D1*
X1100025Y4564267D2*
X1098638Y4555510D1*
X1095899Y4547078D1*
X1091875Y4539179D1*
X1086663Y4532006D1*
X1080394Y4525737D1*
X1073221Y4520525D1*
X1065322Y4516501D1*
X1056890Y4513762D1*
X1048133Y4512375D1*
X1039267D1*
X1030510Y4513762D1*
X1022078Y4516501D1*
X1014179Y4520525D1*
X1007006Y4525737D1*
X1000737Y4532006D1*
X995525Y4539179D1*
X991501Y4547078D1*
X988762Y4555510D1*
X987375Y4564267D1*
Y4573133D1*
X988762Y4581890D1*
X991501Y4590322D1*
X995525Y4598221D1*
X1000737Y4605394D1*
X1007006Y4611663D1*
X1014179Y4616875D1*
X1022078Y4620899D1*
X1030510Y4623638D1*
X1039267Y4625025D1*
X1048133D1*
X1056890Y4623638D1*
X1065322Y4620899D1*
X1073221Y4616875D1*
X1080394Y4611663D1*
X1086663Y4605394D1*
X1091875Y4598221D1*
X1095899Y4590322D1*
X1098638Y4581890D1*
X1100025Y4573133D1*
Y4564267D1*
X1100170Y4166863D2*
X1099455Y4159554D1*
X1097797Y4152399D1*
X1095226Y4145520D1*
X1091784Y4139033D1*
X1087531Y4133046D1*
X1082536Y4127663D1*
X1076885Y4122973D1*
X1070674Y4119054D1*
X1064006Y4115976D1*
X1056997Y4113787D1*
X1049762Y4112525D1*
X1042424Y4112214D1*
X1035108Y4112857D1*
X1027938Y4114443D1*
X1021033Y4116945D1*
X1014512Y4120323D1*
X1008483Y4124518D1*
X1003050Y4129459D1*
X998304Y4135062D1*
X994325Y4141235D1*
X991179Y4147871D1*
X988922Y4154859D1*
X987588Y4162082D1*
X987204Y4169415D1*
X987775Y4176737D1*
X989289Y4183923D1*
X991724Y4190852D1*
X995036Y4197406D1*
X999170Y4203476D1*
X1004057Y4208957D1*
X1009613Y4213759D1*
X1015746Y4217800D1*
X1022351Y4221011D1*
X1029317Y4223338D1*
X1036524Y4224742D1*
X1043855Y4225200D1*
X1051182Y4224703D1*
X1058382Y4223259D1*
X1065335Y4220894D1*
X1071922Y4217646D1*
X1078032Y4213573D1*
X1083562Y4208741D1*
X1088419Y4203231D1*
X1092520Y4197140D1*
X1095797Y4190567D1*
X1098193Y4183625D1*
X1099669Y4176431D1*
X1100200Y4168700D1*
X1100170Y4166863D1*
X2100025Y6264267D2*
X2098638Y6255510D1*
X2095899Y6247078D1*
X2091875Y6239179D1*
X2086663Y6232006D1*
X2080394Y6225737D1*
X2073221Y6220525D1*
X2065322Y6216501D1*
X2056890Y6213762D1*
X2048133Y6212375D1*
X2039267D1*
X2030510Y6213762D1*
X2022078Y6216501D1*
X2014179Y6220525D1*
X2007006Y6225737D1*
X2000737Y6232006D1*
X1995525Y6239179D1*
X1991501Y6247078D1*
X1988762Y6255510D1*
X1987375Y6264267D1*
Y6273133D1*
X1988762Y6281890D1*
X1991501Y6290322D1*
X1995525Y6298221D1*
X2000737Y6305394D1*
X2007006Y6311663D1*
X2014179Y6316875D1*
X2022078Y6320899D1*
X2030510Y6323638D1*
X2039267Y6325025D1*
X2048133D1*
X2056890Y6323638D1*
X2065322Y6320899D1*
X2073221Y6316875D1*
X2080394Y6311663D1*
X2086663Y6305394D1*
X2091875Y6298221D1*
X2095899Y6290322D1*
X2098638Y6281890D1*
X2100025Y6273133D1*
Y6264267D1*
X2100170Y5866863D2*
X2099455Y5859554D1*
X2097797Y5852399D1*
X2095226Y5845520D1*
X2091784Y5839033D1*
X2087531Y5833046D1*
X2082536Y5827663D1*
X2076885Y5822973D1*
X2070674Y5819054D1*
X2064006Y5815976D1*
X2056997Y5813787D1*
X2049762Y5812525D1*
X2042424Y5812214D1*
X2035108Y5812857D1*
X2027938Y5814443D1*
X2021033Y5816945D1*
X2014512Y5820323D1*
X2008483Y5824518D1*
X2003050Y5829459D1*
X1998304Y5835062D1*
X1994325Y5841235D1*
X1991179Y5847871D1*
X1988922Y5854859D1*
X1987588Y5862082D1*
X1987204Y5869415D1*
X1987775Y5876737D1*
X1989289Y5883923D1*
X1991724Y5890852D1*
X1995036Y5897406D1*
X1999170Y5903476D1*
X2004057Y5908957D1*
X2009613Y5913759D1*
X2015746Y5917800D1*
X2022351Y5921011D1*
X2029317Y5923338D1*
X2036524Y5924742D1*
X2043855Y5925200D1*
X2051182Y5924703D1*
X2058382Y5923259D1*
X2065335Y5920894D1*
X2071922Y5917646D1*
X2078032Y5913573D1*
X2083562Y5908741D1*
X2088419Y5903231D1*
X2092520Y5897140D1*
X2095797Y5890567D1*
X2098193Y5883625D1*
X2099669Y5876431D1*
X2100200Y5868700D1*
X2100170Y5866863D1*
X2100025Y4564267D2*
X2098638Y4555510D1*
X2095899Y4547078D1*
X2091875Y4539179D1*
X2086663Y4532006D1*
X2080394Y4525737D1*
X2073221Y4520525D1*
X2065322Y4516501D1*
X2056890Y4513762D1*
X2048133Y4512375D1*
X2039267D1*
X2030510Y4513762D1*
X2022078Y4516501D1*
X2014179Y4520525D1*
X2007006Y4525737D1*
X2000737Y4532006D1*
X1995525Y4539179D1*
X1991501Y4547078D1*
X1988762Y4555510D1*
X1987375Y4564267D1*
Y4573133D1*
X1988762Y4581890D1*
X1991501Y4590322D1*
X1995525Y4598221D1*
X2000737Y4605394D1*
X2007006Y4611663D1*
X2014179Y4616875D1*
X2022078Y4620899D1*
X2030510Y4623638D1*
X2039267Y4625025D1*
X2048133D1*
X2056890Y4623638D1*
X2065322Y4620899D1*
X2073221Y4616875D1*
X2080394Y4611663D1*
X2086663Y4605394D1*
X2091875Y4598221D1*
X2095899Y4590322D1*
X2098638Y4581890D1*
X2100025Y4573133D1*
Y4564267D1*
X2100170Y4166863D2*
X2099455Y4159554D1*
X2097797Y4152399D1*
X2095226Y4145520D1*
X2091784Y4139033D1*
X2087531Y4133046D1*
X2082536Y4127663D1*
X2076885Y4122973D1*
X2070674Y4119054D1*
X2064006Y4115976D1*
X2056997Y4113787D1*
X2049762Y4112525D1*
X2042424Y4112214D1*
X2035108Y4112857D1*
X2027938Y4114443D1*
X2021033Y4116945D1*
X2014512Y4120323D1*
X2008483Y4124518D1*
X2003050Y4129459D1*
X1998304Y4135062D1*
X1994325Y4141235D1*
X1991179Y4147871D1*
X1988922Y4154859D1*
X1987588Y4162082D1*
X1987204Y4169415D1*
X1987775Y4176737D1*
X1989289Y4183923D1*
X1991724Y4190852D1*
X1995036Y4197406D1*
X1999170Y4203476D1*
X2004057Y4208957D1*
X2009613Y4213759D1*
X2015746Y4217800D1*
X2022351Y4221011D1*
X2029317Y4223338D1*
X2036524Y4224742D1*
X2043855Y4225200D1*
X2051182Y4224703D1*
X2058382Y4223259D1*
X2065335Y4220894D1*
X2071922Y4217646D1*
X2078032Y4213573D1*
X2083562Y4208741D1*
X2088419Y4203231D1*
X2092520Y4197140D1*
X2095797Y4190567D1*
X2098193Y4183625D1*
X2099669Y4176431D1*
X2100200Y4168700D1*
X2100170Y4166863D1*
X1542842Y4908754D2*
X1541578Y4900772D1*
X1539081Y4893086D1*
X1535411Y4885886D1*
X1530662Y4879348D1*
X1524947Y4873633D1*
X1518409Y4868884D1*
X1511209Y4865214D1*
X1503523Y4862717D1*
X1495541Y4861453D1*
X1487460D1*
X1479478Y4862717D1*
X1471792Y4865214D1*
X1464592Y4868884D1*
X1458054Y4873633D1*
X1452339Y4879348D1*
X1447590Y4885886D1*
X1443920Y4893086D1*
X1441423Y4900772D1*
X1440159Y4908754D1*
Y4916835D1*
X1441423Y4924817D1*
X1443920Y4932503D1*
X1447590Y4939703D1*
X1452339Y4946241D1*
X1458054Y4951956D1*
X1464592Y4956705D1*
X1471792Y4960375D1*
X1479478Y4962872D1*
X1487460Y4964136D1*
X1495541D1*
X1503523Y4962872D1*
X1511209Y4960375D1*
X1518409Y4956705D1*
X1524947Y4951956D1*
X1530662Y4946241D1*
X1535411Y4939703D1*
X1539081Y4932503D1*
X1541578Y4924817D1*
X1542842Y4916835D1*
Y4908754D1*
X1720041D2*
X1718777Y4900772D1*
X1716280Y4893086D1*
X1712611Y4885886D1*
X1707861Y4879348D1*
X1702146Y4873633D1*
X1695608Y4868884D1*
X1688409Y4865214D1*
X1680722Y4862717D1*
X1672741Y4861453D1*
X1664659D1*
X1656678Y4862717D1*
X1648991Y4865214D1*
X1641792Y4868884D1*
X1635254Y4873633D1*
X1629539Y4879348D1*
X1624789Y4885886D1*
X1621120Y4893086D1*
X1618623Y4900772D1*
X1617359Y4908754D1*
Y4916835D1*
X1618623Y4924817D1*
X1621120Y4932503D1*
X1624789Y4939703D1*
X1629539Y4946241D1*
X1635254Y4951956D1*
X1641792Y4956705D1*
X1648991Y4960375D1*
X1656678Y4962872D1*
X1664659Y4964136D1*
X1672741D1*
X1680722Y4962872D1*
X1688409Y4960375D1*
X1695608Y4956705D1*
X1702146Y4951956D1*
X1707861Y4946241D1*
X1712611Y4939703D1*
X1716280Y4932503D1*
X1718777Y4924817D1*
X1720041Y4916835D1*
Y4908754D1*
X2820041D2*
X2818777Y4900772D1*
X2816280Y4893086D1*
X2812611Y4885886D1*
X2807861Y4879348D1*
X2802146Y4873633D1*
X2795608Y4868884D1*
X2788409Y4865214D1*
X2780722Y4862717D1*
X2772741Y4861453D1*
X2764659D1*
X2756678Y4862717D1*
X2748991Y4865214D1*
X2741792Y4868884D1*
X2735254Y4873633D1*
X2729539Y4879348D1*
X2724789Y4885886D1*
X2721120Y4893086D1*
X2718623Y4900772D1*
X2717359Y4908754D1*
Y4916835D1*
X2718623Y4924817D1*
X2721120Y4932503D1*
X2724789Y4939703D1*
X2729539Y4946241D1*
X2735254Y4951956D1*
X2741792Y4956705D1*
X2748991Y4960375D1*
X2756678Y4962872D1*
X2764659Y4964136D1*
X2772741D1*
X2780722Y4962872D1*
X2788409Y4960375D1*
X2795608Y4956705D1*
X2802146Y4951956D1*
X2807861Y4946241D1*
X2812611Y4939703D1*
X2816280Y4932503D1*
X2818777Y4924817D1*
X2820041Y4916835D1*
Y4908754D1*
X3142842D2*
X3141578Y4900772D1*
X3139081Y4893086D1*
X3135411Y4885886D1*
X3130662Y4879348D1*
X3124947Y4873633D1*
X3118409Y4868884D1*
X3111209Y4865214D1*
X3103523Y4862717D1*
X3095541Y4861453D1*
X3087460D1*
X3079478Y4862717D1*
X3071792Y4865214D1*
X3064592Y4868884D1*
X3058054Y4873633D1*
X3052339Y4879348D1*
X3047590Y4885886D1*
X3043920Y4893086D1*
X3041423Y4900772D1*
X3040159Y4908754D1*
Y4916835D1*
X3041423Y4924817D1*
X3043920Y4932503D1*
X3047590Y4939703D1*
X3052339Y4946241D1*
X3058054Y4951956D1*
X3064592Y4956705D1*
X3071792Y4960375D1*
X3079478Y4962872D1*
X3087460Y4964136D1*
X3095541D1*
X3103523Y4962872D1*
X3111209Y4960375D1*
X3118409Y4956705D1*
X3124947Y4951956D1*
X3130662Y4946241D1*
X3135411Y4939703D1*
X3139081Y4932503D1*
X3141578Y4924817D1*
X3142842Y4916835D1*
Y4908754D1*
X3320041D2*
X3318777Y4900772D1*
X3316280Y4893086D1*
X3312611Y4885886D1*
X3307861Y4879348D1*
X3302146Y4873633D1*
X3295608Y4868884D1*
X3288409Y4865214D1*
X3280722Y4862717D1*
X3272741Y4861453D1*
X3264659D1*
X3256678Y4862717D1*
X3248991Y4865214D1*
X3241792Y4868884D1*
X3235254Y4873633D1*
X3229539Y4879348D1*
X3224789Y4885886D1*
X3221120Y4893086D1*
X3218623Y4900772D1*
X3217359Y4908754D1*
Y4916835D1*
X3218623Y4924817D1*
X3221120Y4932503D1*
X3224789Y4939703D1*
X3229539Y4946241D1*
X3235254Y4951956D1*
X3241792Y4956705D1*
X3248991Y4960375D1*
X3256678Y4962872D1*
X3264659Y4964136D1*
X3272741D1*
X3280722Y4962872D1*
X3288409Y4960375D1*
X3295608Y4956705D1*
X3302146Y4951956D1*
X3307861Y4946241D1*
X3312611Y4939703D1*
X3316280Y4932503D1*
X3318777Y4924817D1*
X3320041Y4916835D1*
Y4908754D1*
X1092842D2*
X1091578Y4900772D1*
X1089081Y4893086D1*
X1085411Y4885886D1*
X1080662Y4879348D1*
X1074947Y4873633D1*
X1068409Y4868884D1*
X1061209Y4865214D1*
X1053523Y4862717D1*
X1045541Y4861453D1*
X1037460D1*
X1029478Y4862717D1*
X1021792Y4865214D1*
X1014592Y4868884D1*
X1008054Y4873633D1*
X1002339Y4879348D1*
X997590Y4885886D1*
X993920Y4893086D1*
X991423Y4900772D1*
X990159Y4908754D1*
Y4916835D1*
X991423Y4924817D1*
X993920Y4932503D1*
X997590Y4939703D1*
X1002339Y4946241D1*
X1008054Y4951956D1*
X1014592Y4956705D1*
X1021792Y4960375D1*
X1029478Y4962872D1*
X1037460Y4964136D1*
X1045541D1*
X1053523Y4962872D1*
X1061209Y4960375D1*
X1068409Y4956705D1*
X1074947Y4951956D1*
X1080662Y4946241D1*
X1085411Y4939703D1*
X1089081Y4932503D1*
X1091578Y4924817D1*
X1092842Y4916835D1*
Y4908754D1*
X1270041D2*
X1268777Y4900772D1*
X1266280Y4893086D1*
X1262611Y4885886D1*
X1257861Y4879348D1*
X1252146Y4873633D1*
X1245608Y4868884D1*
X1238409Y4865214D1*
X1230722Y4862717D1*
X1222741Y4861453D1*
X1214659D1*
X1206678Y4862717D1*
X1198991Y4865214D1*
X1191792Y4868884D1*
X1185254Y4873633D1*
X1179539Y4879348D1*
X1174789Y4885886D1*
X1171120Y4893086D1*
X1168623Y4900772D1*
X1167359Y4908754D1*
Y4916835D1*
X1168623Y4924817D1*
X1171120Y4932503D1*
X1174789Y4939703D1*
X1179539Y4946241D1*
X1185254Y4951956D1*
X1191792Y4956705D1*
X1198991Y4960375D1*
X1206678Y4962872D1*
X1214659Y4964136D1*
X1222741D1*
X1230722Y4962872D1*
X1238409Y4960375D1*
X1245608Y4956705D1*
X1252146Y4951956D1*
X1257861Y4946241D1*
X1262611Y4939703D1*
X1266280Y4932503D1*
X1268777Y4924817D1*
X1270041Y4916835D1*
Y4908754D1*
X2092842Y6864659D2*
X2091578Y6856678D1*
X2089081Y6848991D1*
X2085411Y6841792D1*
X2080662Y6835254D1*
X2074947Y6829539D1*
X2068409Y6824789D1*
X2061209Y6821120D1*
X2053523Y6818623D1*
X2045541Y6817359D1*
X2037460D1*
X2029478Y6818623D1*
X2021792Y6821120D1*
X2014592Y6824789D1*
X2008054Y6829539D1*
X2002339Y6835254D1*
X1997590Y6841792D1*
X1993920Y6848991D1*
X1991423Y6856678D1*
X1990159Y6864659D1*
Y6872741D1*
X1991423Y6880722D1*
X1993920Y6888409D1*
X1997590Y6895608D1*
X2002339Y6902146D1*
X2008054Y6907861D1*
X2014592Y6912611D1*
X2021792Y6916280D1*
X2029478Y6918777D1*
X2037460Y6920041D1*
X2045541D1*
X2053523Y6918777D1*
X2061209Y6916280D1*
X2068409Y6912611D1*
X2074947Y6907861D1*
X2080662Y6902146D1*
X2085411Y6895608D1*
X2089081Y6888409D1*
X2091578Y6880722D1*
X2092842Y6872741D1*
Y6864659D1*
Y6608754D2*
X2091578Y6600772D1*
X2089081Y6593086D1*
X2085411Y6585886D1*
X2080662Y6579348D1*
X2074947Y6573633D1*
X2068409Y6568884D1*
X2061209Y6565214D1*
X2053523Y6562717D1*
X2045541Y6561453D1*
X2037460D1*
X2029478Y6562717D1*
X2021792Y6565214D1*
X2014592Y6568884D1*
X2008054Y6573633D1*
X2002339Y6579348D1*
X1997590Y6585886D1*
X1993920Y6593086D1*
X1991423Y6600772D1*
X1990159Y6608754D1*
Y6616835D1*
X1991423Y6624817D1*
X1993920Y6632503D1*
X1997590Y6639703D1*
X2002339Y6646241D1*
X2008054Y6651956D1*
X2014592Y6656705D1*
X2021792Y6660375D1*
X2029478Y6662872D1*
X2037460Y6664136D1*
X2045541D1*
X2053523Y6662872D1*
X2061209Y6660375D1*
X2068409Y6656705D1*
X2074947Y6651956D1*
X2080662Y6646241D1*
X2085411Y6639703D1*
X2089081Y6632503D1*
X2091578Y6624817D1*
X2092842Y6616835D1*
Y6608754D1*
X2270041D2*
X2268777Y6600772D1*
X2266280Y6593086D1*
X2262611Y6585886D1*
X2257861Y6579348D1*
X2252146Y6573633D1*
X2245608Y6568884D1*
X2238409Y6565214D1*
X2230722Y6562717D1*
X2222741Y6561453D1*
X2214659D1*
X2206678Y6562717D1*
X2198991Y6565214D1*
X2191792Y6568884D1*
X2185254Y6573633D1*
X2179539Y6579348D1*
X2174789Y6585886D1*
X2171120Y6593086D1*
X2168623Y6600772D1*
X2167359Y6608754D1*
Y6616835D1*
X2168623Y6624817D1*
X2171120Y6632503D1*
X2174789Y6639703D1*
X2179539Y6646241D1*
X2185254Y6651956D1*
X2191792Y6656705D1*
X2198991Y6660375D1*
X2206678Y6662872D1*
X2214659Y6664136D1*
X2222741D1*
X2230722Y6662872D1*
X2238409Y6660375D1*
X2245608Y6656705D1*
X2252146Y6651956D1*
X2257861Y6646241D1*
X2262611Y6639703D1*
X2266280Y6632503D1*
X2268777Y6624817D1*
X2270041Y6616835D1*
Y6608754D1*
X2092842Y4908754D2*
X2091578Y4900772D1*
X2089081Y4893086D1*
X2085411Y4885886D1*
X2080662Y4879348D1*
X2074947Y4873633D1*
X2068409Y4868884D1*
X2061209Y4865214D1*
X2053523Y4862717D1*
X2045541Y4861453D1*
X2037460D1*
X2029478Y4862717D1*
X2021792Y4865214D1*
X2014592Y4868884D1*
X2008054Y4873633D1*
X2002339Y4879348D1*
X1997590Y4885886D1*
X1993920Y4893086D1*
X1991423Y4900772D1*
X1990159Y4908754D1*
Y4916835D1*
X1991423Y4924817D1*
X1993920Y4932503D1*
X1997590Y4939703D1*
X2002339Y4946241D1*
X2008054Y4951956D1*
X2014592Y4956705D1*
X2021792Y4960375D1*
X2029478Y4962872D1*
X2037460Y4964136D1*
X2045541D1*
X2053523Y4962872D1*
X2061209Y4960375D1*
X2068409Y4956705D1*
X2074947Y4951956D1*
X2080662Y4946241D1*
X2085411Y4939703D1*
X2089081Y4932503D1*
X2091578Y4924817D1*
X2092842Y4916835D1*
Y4908754D1*
X2270041D2*
X2268777Y4900772D1*
X2266280Y4893086D1*
X2262611Y4885886D1*
X2257861Y4879348D1*
X2252146Y4873633D1*
X2245608Y4868884D1*
X2238409Y4865214D1*
X2230722Y4862717D1*
X2222741Y4861453D1*
X2214659D1*
X2206678Y4862717D1*
X2198991Y4865214D1*
X2191792Y4868884D1*
X2185254Y4873633D1*
X2179539Y4879348D1*
X2174789Y4885886D1*
X2171120Y4893086D1*
X2168623Y4900772D1*
X2167359Y4908754D1*
Y4916835D1*
X2168623Y4924817D1*
X2171120Y4932503D1*
X2174789Y4939703D1*
X2179539Y4946241D1*
X2185254Y4951956D1*
X2191792Y4956705D1*
X2198991Y4960375D1*
X2206678Y4962872D1*
X2214659Y4964136D1*
X2222741D1*
X2230722Y4962872D1*
X2238409Y4960375D1*
X2245608Y4956705D1*
X2252146Y4951956D1*
X2257861Y4946241D1*
X2262611Y4939703D1*
X2266280Y4932503D1*
X2268777Y4924817D1*
X2270041Y4916835D1*
Y4908754D1*
X1779108Y1758292D2*
D16*
X1858292Y1679108D1*
Y1758292D2*
X1779108Y1679108D1*
X2379108Y1958292D2*
X2458292Y1879108D1*
Y1958292D2*
X2379108Y1879108D1*
X1192225Y7470175D2*
X1295175Y7367225D1*
Y7470175D2*
X1192225Y7367225D1*
X2867225Y7470175D2*
X2970175Y7367225D1*
Y7470175D2*
X2867225Y7367225D1*
X2567225Y7570175D2*
X2670175Y7467225D1*
Y7570175D2*
X2567225Y7467225D1*
X2654725Y782675D2*
X2757675Y679725D1*
Y782675D2*
X2654725Y679725D1*
X2186057Y2901343D2*
X2251343Y2836057D1*
Y2901343D2*
X2186057Y2836057D1*
X1628773Y4208627D2*
X1708627Y4128773D1*
Y4208627D2*
X1628773Y4128773D1*
X2593700Y4168700D2*
X2633627Y4128773D1*
Y4208627D2*
X2593700Y4168700D1*
X3053773Y4208627D2*
X3133627Y4128773D1*
Y4208627D2*
X3053773Y4128773D1*
X1003773Y4208627D2*
X1083627Y4128773D1*
Y4208627D2*
X1003773Y4128773D1*
X2003773Y5908627D2*
X2083627Y5828773D1*
Y5908627D2*
X2003773Y5828773D1*
Y4208627D2*
X2083627Y4128773D1*
Y4208627D2*
X2003773Y4128773D1*
D17*
X1818700Y2018700D3*
D18*
Y1918700D3*
Y1818700D3*
Y1718700D3*
Y1618700D3*
Y1518700D3*
Y1418700D3*
Y1318700D3*
Y1218700D3*
Y1118700D3*
Y1018700D3*
Y918700D3*
Y818700D3*
Y718700D3*
Y618700D3*
X2418700D3*
Y718700D3*
Y818700D3*
Y918700D3*
Y1018700D3*
Y1118700D3*
Y1218700D3*
Y1318700D3*
Y1418700D3*
Y1518700D3*
Y1618700D3*
Y1718700D3*
Y1818700D3*
Y1918700D3*
Y2018700D3*
D14*
X1168700Y718700D3*
D19*
Y618700D3*
D14*
X1243700Y7518700D3*
D19*
Y7418700D3*
D14*
X3006200Y631200D3*
D19*
Y731200D3*
D14*
X2918700Y7518700D3*
D19*
Y7418700D3*
D14*
X1543700Y7618700D3*
D19*
Y7518700D3*
D14*
X2618700Y7618700D3*
D19*
Y7518700D3*
D14*
X1468700Y718700D3*
D19*
Y618700D3*
D14*
X2706200Y631200D3*
D19*
Y731200D3*
D20*
X2218700Y2868700D3*
X1962794D3*
D21*
X1168700Y1118700D3*
D22*
Y1518700D3*
D21*
X3006200Y1131200D3*
D22*
Y1531200D3*
D21*
X1468700Y7218700D3*
D22*
Y6818700D3*
D21*
Y1118700D3*
D22*
Y1518700D3*
D21*
X1668700Y4568700D3*
D22*
Y4168700D3*
D21*
X2593700Y4568700D3*
D22*
Y4168700D3*
D21*
X3093700Y4568700D3*
D22*
Y4168700D3*
D21*
X1043700Y4568700D3*
D22*
Y4168700D3*
D21*
X2043700Y6268700D3*
D22*
Y5868700D3*
D21*
Y4568700D3*
D22*
Y4168700D3*
D23*
X1668700Y5168700D3*
X1491501D3*
Y4912794D3*
X1668700D3*
X2768700Y5168700D3*
X2591501D3*
Y4912794D3*
X2768700D3*
X3268700Y5168700D3*
X3091501D3*
Y4912794D3*
X3268700D3*
X1218700Y5168700D3*
X1041501D3*
Y4912794D3*
X1218700D3*
X2218700Y6868700D3*
X2041501D3*
Y6612794D3*
X2218700D3*
Y5168700D3*
X2041501D3*
Y4912794D3*
X2218700D3*
M02*
