M48
INCH
T01C0.026
T02C0.028
T03C0.03
T04C0.0354
T05C0.038
T06C0.065
%
T01
X+022187Y+028687
X+019628Y+028687
T02
X+011687Y+007187
X+011687Y+006187
X+014687Y+006187
X+014687Y+007187
X+027062Y+007312
X+027062Y+006312
X+030062Y+006312
X+030062Y+007312
X+029187Y+074187
X+029187Y+075187
X+026187Y+075187
X+026187Y+076187
X+015437Y+076187
X+015437Y+075187
X+012437Y+075187
X+012437Y+074187
T03
X+016687Y+051687
X+014915Y+051687
X+014915Y+049128
X+016687Y+049128
X+020415Y+049128
X+022187Y+049128
X+022187Y+051687
X+020415Y+051687
X+025915Y+051687
X+027687Y+051687
X+027687Y+049128
X+025915Y+049128
X+030915Y+049128
X+032687Y+049128
X+032687Y+051687
X+030915Y+051687
X+022187Y+066128
X+020415Y+066128
X+020415Y+068687
X+022187Y+068687
X+012187Y+051687
X+010415Y+051687
X+010415Y+049128
X+012187Y+049128
T04
X+018187Y+020187
X+018187Y+019187
X+018187Y+018187
X+018187Y+017187
X+018187Y+016187
X+018187Y+015187
X+018187Y+014187
X+018187Y+013187
X+018187Y+012187
X+018187Y+011187
X+018187Y+010187
X+018187Y+009187
X+018187Y+008187
X+018187Y+007187
X+018187Y+006187
X+024187Y+006187
X+024187Y+007187
X+024187Y+008187
X+024187Y+009187
X+024187Y+010187
X+024187Y+011187
X+024187Y+012187
X+024187Y+013187
X+024187Y+014187
X+024187Y+015187
X+024187Y+016187
X+024187Y+017187
X+024187Y+018187
X+024187Y+019187
X+024187Y+020187
T05
X+011687Y+011187
X+014687Y+011187
X+014687Y+015187
X+011687Y+015187
X+030062Y+015312
X+030062Y+011312
X+030937Y+041687
X+030937Y+045687
X+025937Y+045687
X+025937Y+041687
X+020437Y+041687
X+016687Y+041687
X+016687Y+045687
X+020437Y+045687
X+010437Y+045687
X+010437Y+041687
X+020437Y+058687
X+020437Y+062687
X+014687Y+068187
X+014687Y+072187
T06
X+018187Y+021187
X+024187Y+021187
X+024187Y+005187
X+018187Y+005187
T00
M30
