G04 DipTrace 3.3.1.3*
G04 TopSilk.gbr*
%MOIN*%
G04 #@! TF.FileFunction,Legend,Top*
G04 #@! TF.Part,Single*
%ADD10C,0.009843*%
%ADD48C,0.00772*%
%ADD49C,0.015439*%
%ADD50C,0.012351*%
%FSLAX26Y26*%
G04*
G70*
G90*
G75*
G01*
G04 TopSilk*
%LPD*%
X1768700Y468760D2*
D10*
X2468700D1*
Y2168699D1*
X1768700D1*
Y468760D1*
X1243638Y568707D2*
X1093762D1*
X1243938Y568932D2*
G03X1093462Y568932I-75238J99796D01*
G01*
X1318638Y7368707D2*
X1168762D1*
X1318938Y7368932D2*
G03X1168462Y7368932I-75238J99796D01*
G01*
X2931262Y781193D2*
X3081138D1*
X2930962Y780968D2*
G03X3081438Y780968I75238J-99796D01*
G01*
X2993638Y7368707D2*
X2843762D1*
X2993938Y7368932D2*
G03X2843462Y7368932I-75238J99796D01*
G01*
X1618638Y7468707D2*
X1468762D1*
X1618938Y7468932D2*
G03X1468462Y7468932I-75238J99796D01*
G01*
X2693638Y7468707D2*
X2543762D1*
X2693938Y7468932D2*
G03X2543462Y7468932I-75238J99796D01*
G01*
X1543638Y568707D2*
X1393762D1*
X1543938Y568932D2*
G03X1393462Y568932I-75238J99796D01*
G01*
X2631262Y781193D2*
X2781138D1*
X2630962Y780968D2*
G03X2781438Y780968I75238J-99796D01*
G01*
X1854527Y2868700D2*
G02X1854527Y2868700I236220J0D01*
G01*
X1218700Y1418520D2*
Y1218880D1*
X1118700D2*
X1218700D1*
X1118700Y1418520D2*
Y1218880D1*
Y1418520D2*
X1218700D1*
X3056200Y1431020D2*
Y1231380D1*
X2956200D2*
X3056200D1*
X2956200Y1431020D2*
Y1231380D1*
Y1431020D2*
X3056200D1*
X1418700Y6918880D2*
Y7118520D1*
X1518700D2*
X1418700D1*
X1518700Y6918880D2*
Y7118520D1*
Y6918880D2*
X1418700D1*
X1518700Y1418520D2*
Y1218880D1*
X1418700D2*
X1518700D1*
X1418700Y1418520D2*
Y1218880D1*
Y1418520D2*
X1518700D1*
X1618700Y4268880D2*
Y4468520D1*
X1718700D2*
X1618700D1*
X1718700Y4268880D2*
Y4468520D1*
Y4268880D2*
X1618700D1*
X2543700D2*
Y4468520D1*
X2643700D2*
X2543700D1*
X2643700Y4268880D2*
Y4468520D1*
Y4268880D2*
X2543700D1*
X3043700D2*
Y4468520D1*
X3143700D2*
X3043700D1*
X3143700Y4268880D2*
Y4468520D1*
Y4268880D2*
X3043700D1*
X993700D2*
Y4468520D1*
X1093700D2*
X993700D1*
X1093700Y4268880D2*
Y4468520D1*
Y4268880D2*
X993700D1*
X1993700Y5968880D2*
Y6168520D1*
X2093700D2*
X1993700D1*
X2093700Y5968880D2*
Y6168520D1*
Y5968880D2*
X1993700D1*
Y4268880D2*
Y4468520D1*
X2093700D2*
X1993700D1*
X2093700Y4268880D2*
Y4468520D1*
Y4268880D2*
X1993700D1*
X1430100Y5240747D2*
X1730100D1*
Y4840747D1*
X1430100D1*
Y5240747D1*
X2530100D2*
X2830100D1*
Y4840747D1*
X2530100D1*
Y5240747D1*
X3030100D2*
X3330100D1*
Y4840747D1*
X3030100D1*
Y5240747D1*
X980100D2*
X1280100D1*
Y4840747D1*
X980100D1*
Y5240747D1*
X1980100Y6940747D2*
X2280100D1*
Y6540747D1*
X1980100D1*
Y6940747D1*
Y5240747D2*
X2280100D1*
Y4840747D1*
X1980100D1*
Y5240747D1*
X2075202Y2191682D2*
D48*
X2056023Y2241922D1*
X2036900Y2191682D1*
X2044085Y2208429D2*
X2068017D1*
X2090641Y2217991D2*
X2112141D1*
X2119326Y2220423D1*
X2121758Y2222799D1*
X2124135Y2227552D1*
Y2232361D1*
X2121758Y2237114D1*
X2119326Y2239546D1*
X2112141Y2241922D1*
X2090641D1*
Y2191682D1*
X2107388Y2217991D2*
X2124135Y2191682D1*
X2139574Y2241922D2*
Y2191682D1*
X2156320D1*
X2163505Y2194114D1*
X2168314Y2198867D1*
X2170691Y2203676D1*
X2173067Y2210806D1*
Y2222799D1*
X2170691Y2229984D1*
X2168314Y2234737D1*
X2163505Y2239546D1*
X2156320Y2241922D1*
X2139574D1*
X2188506Y2232306D2*
X2193315Y2234737D1*
X2200500Y2241867D1*
Y2191682D1*
X1059578Y866930D2*
X1054770Y864553D1*
X1050016Y859745D1*
X1047584Y854991D1*
X1045208Y847806D1*
Y835813D1*
X1047584Y828683D1*
X1050016Y823875D1*
X1054770Y819121D1*
X1059578Y816690D1*
X1069140D1*
X1073893Y819121D1*
X1078701Y823875D1*
X1081078Y828683D1*
X1083454Y835813D1*
Y847806D1*
X1081078Y854991D1*
X1078701Y859745D1*
X1073893Y864553D1*
X1069140Y866930D1*
X1059578D1*
X1098894Y850183D2*
Y816690D1*
Y835813D2*
X1101326Y842998D1*
X1106079Y847806D1*
X1110887Y850183D1*
X1118072D1*
X1162196D2*
Y816690D1*
Y842998D2*
X1157443Y847806D1*
X1152635Y850183D1*
X1145505D1*
X1140696Y847806D1*
X1135943Y842998D1*
X1133511Y835813D1*
Y831060D1*
X1135943Y823875D1*
X1140696Y819121D1*
X1145505Y816690D1*
X1152635D1*
X1157443Y819121D1*
X1162196Y823875D1*
X1177636Y850183D2*
Y816690D1*
Y840621D2*
X1184821Y847806D1*
X1189629Y850183D1*
X1196759D1*
X1201567Y847806D1*
X1203944Y840621D1*
Y816690D1*
X1248068Y847806D2*
Y809505D1*
X1245691Y802375D1*
X1243315Y799943D1*
X1238506Y797566D1*
X1231321D1*
X1226568Y799943D1*
X1248068Y840621D2*
X1243315Y845375D1*
X1238506Y847806D1*
X1231321D1*
X1226568Y845375D1*
X1221760Y840621D1*
X1219383Y833436D1*
Y828628D1*
X1221760Y821498D1*
X1226568Y816690D1*
X1231321Y814313D1*
X1238506D1*
X1243315Y816690D1*
X1248068Y821498D1*
X1263507Y835813D2*
X1292192D1*
Y840621D1*
X1289816Y845430D1*
X1287439Y847806D1*
X1282630Y850183D1*
X1275445D1*
X1270692Y847806D1*
X1265884Y842998D1*
X1263507Y835813D1*
Y831060D1*
X1265884Y823875D1*
X1270692Y819121D1*
X1275445Y816690D1*
X1282630D1*
X1287439Y819121D1*
X1292192Y823875D1*
X1134578Y7666930D2*
X1129770Y7664553D1*
X1125016Y7659745D1*
X1122584Y7654991D1*
X1120208Y7647806D1*
Y7635813D1*
X1122584Y7628683D1*
X1125016Y7623875D1*
X1129770Y7619121D1*
X1134578Y7616690D1*
X1144140D1*
X1148893Y7619121D1*
X1153701Y7623875D1*
X1156078Y7628683D1*
X1158454Y7635813D1*
Y7647806D1*
X1156078Y7654991D1*
X1153701Y7659745D1*
X1148893Y7664553D1*
X1144140Y7666930D1*
X1134578D1*
X1173894Y7650183D2*
Y7616690D1*
Y7635813D2*
X1176326Y7642998D1*
X1181079Y7647806D1*
X1185887Y7650183D1*
X1193072D1*
X1237196D2*
Y7616690D1*
Y7642998D2*
X1232443Y7647806D1*
X1227635Y7650183D1*
X1220505D1*
X1215696Y7647806D1*
X1210943Y7642998D1*
X1208511Y7635813D1*
Y7631060D1*
X1210943Y7623875D1*
X1215696Y7619121D1*
X1220505Y7616690D1*
X1227635D1*
X1232443Y7619121D1*
X1237196Y7623875D1*
X1252636Y7650183D2*
Y7616690D1*
Y7640621D2*
X1259821Y7647806D1*
X1264629Y7650183D1*
X1271759D1*
X1276567Y7647806D1*
X1278944Y7640621D1*
Y7616690D1*
X1323068Y7647806D2*
Y7609505D1*
X1320691Y7602375D1*
X1318315Y7599943D1*
X1313506Y7597566D1*
X1306321D1*
X1301568Y7599943D1*
X1323068Y7640621D2*
X1318315Y7645375D1*
X1313506Y7647806D1*
X1306321D1*
X1301568Y7645375D1*
X1296760Y7640621D1*
X1294383Y7633436D1*
Y7628628D1*
X1296760Y7621498D1*
X1301568Y7616690D1*
X1306321Y7614313D1*
X1313506D1*
X1318315Y7616690D1*
X1323068Y7621498D1*
X1338507Y7635813D2*
X1367192D1*
Y7640621D1*
X1364816Y7645430D1*
X1362439Y7647806D1*
X1357630Y7650183D1*
X1350445D1*
X1345692Y7647806D1*
X1340884Y7642998D1*
X1338507Y7635813D1*
Y7631060D1*
X1340884Y7623875D1*
X1345692Y7619121D1*
X1350445Y7616690D1*
X1357630D1*
X1362439Y7619121D1*
X1367192Y7623875D1*
X2897078Y854417D2*
X2892270Y852040D1*
X2887516Y847231D1*
X2885084Y842478D1*
X2882708Y835293D1*
Y823300D1*
X2885084Y816170D1*
X2887516Y811362D1*
X2892270Y806608D1*
X2897078Y804177D1*
X2906640D1*
X2911393Y806608D1*
X2916201Y811362D1*
X2918578Y816170D1*
X2920954Y823300D1*
Y835293D1*
X2918578Y842478D1*
X2916201Y847231D1*
X2911393Y852040D1*
X2906640Y854417D1*
X2897078D1*
X2936394Y837670D2*
Y804177D1*
Y823300D2*
X2938826Y830485D1*
X2943579Y835293D1*
X2948387Y837670D1*
X2955572D1*
X2999696D2*
Y804177D1*
Y830485D2*
X2994943Y835293D1*
X2990135Y837670D1*
X2983005D1*
X2978196Y835293D1*
X2973443Y830485D1*
X2971011Y823300D1*
Y818547D1*
X2973443Y811362D1*
X2978196Y806608D1*
X2983005Y804177D1*
X2990135D1*
X2994943Y806608D1*
X2999696Y811362D1*
X3015136Y837670D2*
Y804177D1*
Y828108D2*
X3022321Y835293D1*
X3027129Y837670D1*
X3034259D1*
X3039067Y835293D1*
X3041444Y828108D1*
Y804177D1*
X3085568Y835293D2*
Y796991D1*
X3083191Y789862D1*
X3080815Y787430D1*
X3076006Y785053D1*
X3068821D1*
X3064068Y787430D1*
X3085568Y828108D2*
X3080815Y832861D1*
X3076006Y835293D1*
X3068821D1*
X3064068Y832861D1*
X3059260Y828108D1*
X3056883Y820923D1*
Y816115D1*
X3059260Y808985D1*
X3064068Y804177D1*
X3068821Y801800D1*
X3076006D1*
X3080815Y804177D1*
X3085568Y808985D1*
X3101007Y823300D2*
X3129692D1*
Y828108D1*
X3127316Y832917D1*
X3124939Y835293D1*
X3120130Y837670D1*
X3112945D1*
X3108192Y835293D1*
X3103384Y830485D1*
X3101007Y823300D1*
Y818547D1*
X3103384Y811362D1*
X3108192Y806608D1*
X3112945Y804177D1*
X3120130D1*
X3124939Y806608D1*
X3129692Y811362D1*
X2809578Y7666930D2*
X2804770Y7664553D1*
X2800016Y7659745D1*
X2797584Y7654991D1*
X2795208Y7647806D1*
Y7635813D1*
X2797584Y7628683D1*
X2800016Y7623875D1*
X2804770Y7619121D1*
X2809578Y7616690D1*
X2819140D1*
X2823893Y7619121D1*
X2828701Y7623875D1*
X2831078Y7628683D1*
X2833454Y7635813D1*
Y7647806D1*
X2831078Y7654991D1*
X2828701Y7659745D1*
X2823893Y7664553D1*
X2819140Y7666930D1*
X2809578D1*
X2848894Y7650183D2*
Y7616690D1*
Y7635813D2*
X2851326Y7642998D1*
X2856079Y7647806D1*
X2860887Y7650183D1*
X2868072D1*
X2912196D2*
Y7616690D1*
Y7642998D2*
X2907443Y7647806D1*
X2902635Y7650183D1*
X2895505D1*
X2890696Y7647806D1*
X2885943Y7642998D1*
X2883511Y7635813D1*
Y7631060D1*
X2885943Y7623875D1*
X2890696Y7619121D1*
X2895505Y7616690D1*
X2902635D1*
X2907443Y7619121D1*
X2912196Y7623875D1*
X2927636Y7650183D2*
Y7616690D1*
Y7640621D2*
X2934821Y7647806D1*
X2939629Y7650183D1*
X2946759D1*
X2951567Y7647806D1*
X2953944Y7640621D1*
Y7616690D1*
X2998068Y7647806D2*
Y7609505D1*
X2995691Y7602375D1*
X2993315Y7599943D1*
X2988506Y7597566D1*
X2981321D1*
X2976568Y7599943D1*
X2998068Y7640621D2*
X2993315Y7645375D1*
X2988506Y7647806D1*
X2981321D1*
X2976568Y7645375D1*
X2971760Y7640621D1*
X2969383Y7633436D1*
Y7628628D1*
X2971760Y7621498D1*
X2976568Y7616690D1*
X2981321Y7614313D1*
X2988506D1*
X2993315Y7616690D1*
X2998068Y7621498D1*
X3013507Y7635813D2*
X3042192D1*
Y7640621D1*
X3039816Y7645430D1*
X3037439Y7647806D1*
X3032630Y7650183D1*
X3025445D1*
X3020692Y7647806D1*
X3015884Y7642998D1*
X3013507Y7635813D1*
Y7631060D1*
X3015884Y7623875D1*
X3020692Y7619121D1*
X3025445Y7616690D1*
X3032630D1*
X3037439Y7619121D1*
X3042192Y7623875D1*
X1449427Y7766930D2*
X1461421Y7716690D1*
X1473359Y7766930D1*
X1485297Y7716690D1*
X1497291Y7766930D1*
X1512730D2*
Y7716690D1*
Y7740621D2*
X1519915Y7747806D1*
X1524724Y7750183D1*
X1531909D1*
X1536662Y7747806D1*
X1539038Y7740621D1*
Y7716690D1*
X1554478Y7766930D2*
X1556854Y7764553D1*
X1559286Y7766930D1*
X1556854Y7769361D1*
X1554478Y7766930D1*
X1556854Y7750183D2*
Y7716690D1*
X1581910Y7766930D2*
Y7726251D1*
X1584287Y7719121D1*
X1589095Y7716690D1*
X1593849D1*
X1574725Y7750183D2*
X1591472D1*
X1609288Y7735813D2*
X1637973D1*
Y7740621D1*
X1635596Y7745430D1*
X1633219Y7747806D1*
X1628411Y7750183D1*
X1621226D1*
X1616473Y7747806D1*
X1611664Y7742998D1*
X1609288Y7735813D1*
Y7731060D1*
X1611664Y7723875D1*
X1616473Y7719121D1*
X1621226Y7716690D1*
X1628411D1*
X1633219Y7719121D1*
X1637973Y7723875D1*
X2524427Y7766930D2*
X2536421Y7716690D1*
X2548359Y7766930D1*
X2560297Y7716690D1*
X2572291Y7766930D1*
X2587730D2*
Y7716690D1*
Y7740621D2*
X2594915Y7747806D1*
X2599724Y7750183D1*
X2606909D1*
X2611662Y7747806D1*
X2614038Y7740621D1*
Y7716690D1*
X2629478Y7766930D2*
X2631854Y7764553D1*
X2634286Y7766930D1*
X2631854Y7769361D1*
X2629478Y7766930D1*
X2631854Y7750183D2*
Y7716690D1*
X2656910Y7766930D2*
Y7726251D1*
X2659287Y7719121D1*
X2664095Y7716690D1*
X2668849D1*
X2649725Y7750183D2*
X2666472D1*
X2684288Y7735813D2*
X2712973D1*
Y7740621D1*
X2710596Y7745430D1*
X2708219Y7747806D1*
X2703411Y7750183D1*
X2696226D1*
X2691473Y7747806D1*
X2686664Y7742998D1*
X2684288Y7735813D1*
Y7731060D1*
X2686664Y7723875D1*
X2691473Y7719121D1*
X2696226Y7716690D1*
X2703411D1*
X2708219Y7719121D1*
X2712973Y7723875D1*
X1407829Y842998D2*
X1429329D1*
X1436514Y845430D1*
X1438946Y847806D1*
X1441323Y852560D1*
Y857368D1*
X1438946Y862121D1*
X1436514Y864553D1*
X1429329Y866930D1*
X1407829D1*
Y816690D1*
X1424576Y842998D2*
X1441323Y816690D1*
X1456762Y835813D2*
X1485447D1*
Y840621D1*
X1483070Y845430D1*
X1480693Y847806D1*
X1475885Y850183D1*
X1468700D1*
X1463947Y847806D1*
X1459138Y842998D1*
X1456762Y835813D1*
Y831060D1*
X1459138Y823875D1*
X1463947Y819121D1*
X1468700Y816690D1*
X1475885D1*
X1480693Y819121D1*
X1485447Y823875D1*
X1529571Y866930D2*
Y816690D1*
Y842998D2*
X1524818Y847806D1*
X1520009Y850183D1*
X1512824D1*
X1508071Y847806D1*
X1503263Y842998D1*
X1500886Y835813D1*
Y831060D1*
X1503263Y823875D1*
X1508071Y819121D1*
X1512824Y816690D1*
X1520009D1*
X1524818Y819121D1*
X1529571Y823875D1*
X2645329Y830485D2*
X2666829D1*
X2674014Y832917D1*
X2676446Y835293D1*
X2678823Y840046D1*
Y844855D1*
X2676446Y849608D1*
X2674014Y852040D1*
X2666829Y854417D1*
X2645329D1*
Y804177D1*
X2662076Y830485D2*
X2678823Y804177D1*
X2694262Y823300D2*
X2722947D1*
Y828108D1*
X2720570Y832917D1*
X2718193Y835293D1*
X2713385Y837670D1*
X2706200D1*
X2701447Y835293D1*
X2696638Y830485D1*
X2694262Y823300D1*
Y818547D1*
X2696638Y811362D1*
X2701447Y806608D1*
X2706200Y804177D1*
X2713385D1*
X2718193Y806608D1*
X2722947Y811362D1*
X2767071Y854417D2*
Y804177D1*
Y830485D2*
X2762318Y835293D1*
X2757509Y837670D1*
X2750324D1*
X2745571Y835293D1*
X2740763Y830485D1*
X2738386Y823300D1*
Y818547D1*
X2740763Y811362D1*
X2745571Y806608D1*
X2750324Y804177D1*
X2757509D1*
X2762318Y806608D1*
X2767071Y811362D1*
X2038222Y3178144D2*
Y3127904D1*
X2066907D1*
X2115840Y3170959D2*
X2111086Y3175767D1*
X2103901Y3178144D1*
X2094340D1*
X2087155Y3175767D1*
X2082346Y3170959D1*
Y3166205D1*
X2084778Y3161397D1*
X2087155Y3159020D1*
X2091908Y3156644D1*
X2106278Y3151835D1*
X2111086Y3149459D1*
X2113463Y3147027D1*
X2115840Y3142274D1*
Y3135089D1*
X2111086Y3130335D1*
X2103901Y3127904D1*
X2094340D1*
X2087155Y3130335D1*
X2082346Y3135089D1*
X2131279Y3168527D2*
X2136087Y3170959D1*
X2143272Y3178088D1*
Y3127904D1*
X1069409Y1288237D2*
Y1309737D1*
X1066977Y1316922D1*
X1064600Y1319354D1*
X1059847Y1321730D1*
X1055039D1*
X1050285Y1319354D1*
X1047854Y1316922D1*
X1045477Y1309737D1*
Y1288237D1*
X1095717D1*
X1069409Y1304984D2*
X1095717Y1321730D1*
X1055094Y1337170D2*
X1052662Y1341978D1*
X1045532Y1349163D1*
X1095717D1*
X2906909Y1289987D2*
Y1311487D1*
X2904477Y1318672D1*
X2902100Y1321104D1*
X2897347Y1323480D1*
X2892539D1*
X2887785Y1321104D1*
X2885354Y1318672D1*
X2882977Y1311487D1*
Y1289987D1*
X2933217D1*
X2906909Y1306734D2*
X2933217Y1323480D1*
X2894970Y1341352D2*
X2892594D1*
X2887785Y1343728D1*
X2885409Y1346105D1*
X2883032Y1350913D1*
Y1360475D1*
X2885409Y1365228D1*
X2887785Y1367605D1*
X2892594Y1370036D1*
X2897347D1*
X2902156Y1367605D1*
X2909285Y1362851D1*
X2933217Y1338920D1*
Y1372413D1*
X1369409Y6977487D2*
Y6998987D1*
X1366977Y7006172D1*
X1364600Y7008604D1*
X1359847Y7010980D1*
X1355039D1*
X1350285Y7008604D1*
X1347854Y7006172D1*
X1345477Y6998987D1*
Y6977487D1*
X1395717D1*
X1369409Y6994234D2*
X1395717Y7010980D1*
X1345532Y7031228D2*
Y7057481D1*
X1364656Y7043166D1*
Y7050351D1*
X1367032Y7055105D1*
X1369409Y7057481D1*
X1376594Y7059913D1*
X1381347D1*
X1388532Y7057481D1*
X1393340Y7052728D1*
X1395717Y7045543D1*
Y7038358D1*
X1393340Y7031228D1*
X1390909Y7028852D1*
X1386155Y7026420D1*
X1369409Y1276299D2*
Y1297799D1*
X1366977Y1304984D1*
X1364600Y1307416D1*
X1359847Y1309792D1*
X1355039D1*
X1350285Y1307416D1*
X1347854Y1304984D1*
X1345477Y1297799D1*
Y1276299D1*
X1395717D1*
X1369409Y1293046D2*
X1395717Y1309792D1*
Y1349163D2*
X1345532D1*
X1378970Y1325231D1*
Y1361101D1*
X1569409Y4327487D2*
Y4348987D1*
X1566977Y4356172D1*
X1564600Y4358604D1*
X1559847Y4360980D1*
X1555039D1*
X1550285Y4358604D1*
X1547854Y4356172D1*
X1545477Y4348987D1*
Y4327487D1*
X1595717D1*
X1569409Y4344234D2*
X1595717Y4360980D1*
X1545532Y4405105D2*
Y4381228D1*
X1567032Y4378852D1*
X1564656Y4381228D1*
X1562224Y4388413D1*
Y4395543D1*
X1564656Y4402728D1*
X1569409Y4407536D1*
X1576594Y4409913D1*
X1581347D1*
X1588532Y4407536D1*
X1593340Y4402728D1*
X1595717Y4395543D1*
Y4388413D1*
X1593340Y4381228D1*
X1590909Y4378852D1*
X1586155Y4376420D1*
X2494409Y4328703D2*
Y4350203D1*
X2491977Y4357388D1*
X2489600Y4359820D1*
X2484847Y4362196D1*
X2480039D1*
X2475285Y4359820D1*
X2472854Y4357388D1*
X2470477Y4350203D1*
Y4328703D1*
X2520717D1*
X2494409Y4345450D2*
X2520717Y4362196D1*
X2477662Y4406320D2*
X2472909Y4403944D1*
X2470532Y4396759D1*
Y4392006D1*
X2472909Y4384821D1*
X2480094Y4380012D1*
X2492032Y4377636D1*
X2503970D1*
X2513532Y4380012D1*
X2518340Y4384821D1*
X2520717Y4392006D1*
Y4394382D1*
X2518340Y4401512D1*
X2513532Y4406320D1*
X2506347Y4408697D1*
X2503970D1*
X2496785Y4406320D1*
X2492032Y4401512D1*
X2489656Y4394382D1*
Y4392006D1*
X2492032Y4384821D1*
X2496785Y4380012D1*
X2503970Y4377636D1*
X2994409Y4327487D2*
Y4348987D1*
X2991977Y4356172D1*
X2989600Y4358604D1*
X2984847Y4360980D1*
X2980039D1*
X2975285Y4358604D1*
X2972854Y4356172D1*
X2970477Y4348987D1*
Y4327487D1*
X3020717D1*
X2994409Y4344234D2*
X3020717Y4360980D1*
Y4385981D2*
X2970532Y4409913D1*
Y4376420D1*
X944409Y4327515D2*
Y4349015D1*
X941977Y4356200D1*
X939600Y4358632D1*
X934847Y4361008D1*
X930039D1*
X925285Y4358632D1*
X922854Y4356200D1*
X920477Y4349015D1*
Y4327515D1*
X970717D1*
X944409Y4344261D2*
X970717Y4361008D1*
X920532Y4388386D2*
X922909Y4381256D1*
X927662Y4378824D1*
X932470D1*
X937224Y4381256D1*
X939656Y4386009D1*
X942032Y4395571D1*
X944409Y4402756D1*
X949217Y4407509D1*
X953970Y4409885D1*
X961155D1*
X965909Y4407509D1*
X968340Y4405132D1*
X970717Y4397947D1*
Y4388385D1*
X968340Y4381256D1*
X965909Y4378824D1*
X961155Y4376447D1*
X953970D1*
X949217Y4378824D1*
X944409Y4383632D1*
X942032Y4390762D1*
X939656Y4400324D1*
X937224Y4405132D1*
X932470Y4407509D1*
X927662D1*
X922909Y4405132D1*
X920532Y4397947D1*
Y4388386D1*
X1944409Y6028675D2*
Y6050175D1*
X1941977Y6057360D1*
X1939600Y6059792D1*
X1934847Y6062169D1*
X1930039D1*
X1925285Y6059792D1*
X1922854Y6057360D1*
X1920477Y6050175D1*
Y6028675D1*
X1970717D1*
X1944409Y6045422D2*
X1970717Y6062169D1*
X1937224Y6108725D2*
X1944409Y6106293D1*
X1949217Y6101540D1*
X1951594Y6094355D1*
Y6091978D1*
X1949217Y6084793D1*
X1944409Y6080040D1*
X1937224Y6077608D1*
X1934847D1*
X1927662Y6080040D1*
X1922909Y6084793D1*
X1920532Y6091978D1*
Y6094355D1*
X1922909Y6101540D1*
X1927662Y6106293D1*
X1937224Y6108725D1*
X1949217D1*
X1961155Y6106293D1*
X1968340Y6101540D1*
X1970717Y6094355D1*
Y6089601D1*
X1968340Y6082416D1*
X1963532Y6080040D1*
X1944409Y4313771D2*
Y4335271D1*
X1941977Y4342456D1*
X1939600Y4344888D1*
X1934847Y4347264D1*
X1930039D1*
X1925285Y4344888D1*
X1922854Y4342456D1*
X1920477Y4335271D1*
Y4313771D1*
X1970717D1*
X1944409Y4330517D2*
X1970717Y4347264D1*
X1930094Y4362703D2*
X1927662Y4367512D1*
X1920532Y4374697D1*
X1970717D1*
X1920532Y4404506D2*
X1922909Y4397321D1*
X1930094Y4392513D1*
X1942032Y4390136D1*
X1949217D1*
X1961155Y4392513D1*
X1968340Y4397321D1*
X1970717Y4404506D1*
Y4409259D1*
X1968340Y4416444D1*
X1961155Y4421197D1*
X1949217Y4423629D1*
X1942032D1*
X1930094Y4421197D1*
X1922909Y4416444D1*
X1920532Y4409259D1*
Y4404506D1*
X1930094Y4421197D2*
X1961155Y4392513D1*
X1583131Y5306785D2*
X1578377Y5311594D1*
X1571192Y5313970D1*
X1561631D1*
X1554446Y5311594D1*
X1549637Y5306785D1*
Y5302032D1*
X1552069Y5297224D1*
X1554446Y5294847D1*
X1559199Y5292470D1*
X1573569Y5287662D1*
X1578377Y5285285D1*
X1580754Y5282854D1*
X1583131Y5278100D1*
Y5270915D1*
X1578377Y5266162D1*
X1571192Y5263730D1*
X1561631D1*
X1554446Y5266162D1*
X1549637Y5270915D1*
X1598570Y5304353D2*
X1603378Y5306785D1*
X1610563Y5313915D1*
Y5263730D1*
X2672381Y5306785D2*
X2667627Y5311594D1*
X2660442Y5313970D1*
X2650881D1*
X2643696Y5311594D1*
X2638887Y5306785D1*
Y5302032D1*
X2641319Y5297224D1*
X2643696Y5294847D1*
X2648449Y5292470D1*
X2662819Y5287662D1*
X2667627Y5285285D1*
X2670004Y5282854D1*
X2672381Y5278100D1*
Y5270915D1*
X2667627Y5266162D1*
X2660442Y5263730D1*
X2650881D1*
X2643696Y5266162D1*
X2638887Y5270915D1*
X2690252Y5301977D2*
Y5304353D1*
X2692628Y5309162D1*
X2695005Y5311538D1*
X2699813Y5313915D1*
X2709375D1*
X2714128Y5311538D1*
X2716505Y5309162D1*
X2718937Y5304353D1*
Y5299600D1*
X2716505Y5294792D1*
X2711752Y5287662D1*
X2687820Y5263730D1*
X2721313D1*
X3172381Y5306785D2*
X3167627Y5311594D1*
X3160442Y5313970D1*
X3150881D1*
X3143696Y5311594D1*
X3138887Y5306785D1*
Y5302032D1*
X3141319Y5297224D1*
X3143696Y5294847D1*
X3148449Y5292470D1*
X3162819Y5287662D1*
X3167627Y5285285D1*
X3170004Y5282854D1*
X3172381Y5278100D1*
Y5270915D1*
X3167627Y5266162D1*
X3160442Y5263730D1*
X3150881D1*
X3143696Y5266162D1*
X3138887Y5270915D1*
X3192628Y5313915D2*
X3218881D1*
X3204567Y5294792D1*
X3211752D1*
X3216505Y5292415D1*
X3218881Y5290039D1*
X3221313Y5282854D1*
Y5278100D1*
X3218881Y5270915D1*
X3214128Y5266107D1*
X3206943Y5263730D1*
X3199758D1*
X3192628Y5266107D1*
X3190252Y5268539D1*
X3187820Y5273292D1*
X1121192Y5306785D2*
X1116439Y5311594D1*
X1109254Y5313970D1*
X1099692D1*
X1092507Y5311594D1*
X1087699Y5306785D1*
Y5302032D1*
X1090131Y5297224D1*
X1092507Y5294847D1*
X1097261Y5292470D1*
X1111631Y5287662D1*
X1116439Y5285285D1*
X1118816Y5282854D1*
X1121192Y5278100D1*
Y5270915D1*
X1116439Y5266162D1*
X1109254Y5263730D1*
X1099692D1*
X1092507Y5266162D1*
X1087699Y5270915D1*
X1160563Y5263730D2*
Y5313915D1*
X1136632Y5280477D1*
X1172502D1*
X2122381Y7006785D2*
X2117627Y7011594D1*
X2110442Y7013970D1*
X2100881D1*
X2093696Y7011594D1*
X2088887Y7006785D1*
Y7002032D1*
X2091319Y6997224D1*
X2093696Y6994847D1*
X2098449Y6992470D1*
X2112819Y6987662D1*
X2117627Y6985285D1*
X2120004Y6982854D1*
X2122381Y6978100D1*
Y6970915D1*
X2117627Y6966162D1*
X2110442Y6963730D1*
X2100881D1*
X2093696Y6966162D1*
X2088887Y6970915D1*
X2166505Y7013915D2*
X2142628D1*
X2140252Y6992415D1*
X2142628Y6994792D1*
X2149813Y6997224D1*
X2156943D1*
X2164128Y6994792D1*
X2168937Y6990039D1*
X2171313Y6982854D1*
Y6978100D1*
X2168937Y6970915D1*
X2164128Y6966107D1*
X2156943Y6963730D1*
X2149813D1*
X2142628Y6966107D1*
X2140252Y6968539D1*
X2137820Y6973292D1*
X2123597Y5306785D2*
X2118843Y5311594D1*
X2111658Y5313970D1*
X2102097D1*
X2094912Y5311594D1*
X2090103Y5306785D1*
Y5302032D1*
X2092535Y5297224D1*
X2094912Y5294847D1*
X2099665Y5292470D1*
X2114035Y5287662D1*
X2118843Y5285285D1*
X2121220Y5282854D1*
X2123597Y5278100D1*
Y5270915D1*
X2118843Y5266162D1*
X2111658Y5263730D1*
X2102097D1*
X2094912Y5266162D1*
X2090103Y5270915D1*
X2167721Y5306785D2*
X2165344Y5311538D1*
X2158159Y5313915D1*
X2153406D1*
X2146221Y5311538D1*
X2141412Y5304353D1*
X2139036Y5292415D1*
Y5280477D1*
X2141412Y5270915D1*
X2146221Y5266107D1*
X2153406Y5263730D1*
X2155782D1*
X2162912Y5266107D1*
X2167721Y5270915D1*
X2170097Y5278100D1*
Y5280477D1*
X2167721Y5287662D1*
X2162912Y5292415D1*
X2155782Y5294792D1*
X2153406D1*
X2146221Y5292415D1*
X2141412Y5287662D1*
X2139036Y5280477D1*
X918700Y5492502D2*
D49*
Y5392022D1*
X976070D1*
X1006949Y5492502D2*
X1011702Y5487749D1*
X1016566Y5492502D1*
X1011702Y5497365D1*
X1006949Y5492502D1*
X1011702Y5459008D2*
Y5392022D1*
X1104814Y5454255D2*
Y5377652D1*
X1100061Y5363392D1*
X1095308Y5358528D1*
X1085691Y5353775D1*
X1071321D1*
X1061814Y5358528D1*
X1104814Y5439885D2*
X1095308Y5449392D1*
X1085691Y5454255D1*
X1071321D1*
X1061814Y5449392D1*
X1052197Y5439885D1*
X1047444Y5425515D1*
Y5415898D1*
X1052197Y5401639D1*
X1061814Y5392022D1*
X1071321Y5387269D1*
X1085691D1*
X1095308Y5392022D1*
X1104814Y5401639D1*
X1135692Y5492502D2*
Y5392022D1*
Y5439885D2*
X1150062Y5454255D1*
X1159679Y5459008D1*
X1174049D1*
X1183556Y5454255D1*
X1188309Y5439885D1*
Y5392022D1*
X1233558Y5492502D2*
Y5411145D1*
X1238311Y5396885D1*
X1247928Y5392022D1*
X1257434D1*
X1219187Y5459008D2*
X1252681D1*
X1340929Y5444638D2*
X1336176Y5454255D1*
X1321806Y5459008D1*
X1307436D1*
X1293066Y5454255D1*
X1288312Y5444638D1*
X1293066Y5435132D1*
X1302683Y5430268D1*
X1326559Y5425515D1*
X1336176Y5420762D1*
X1340929Y5411145D1*
Y5406392D1*
X1336176Y5396885D1*
X1321806Y5392022D1*
X1307436D1*
X1293066Y5396885D1*
X1288312Y5406392D1*
X2918700Y5492502D2*
Y5392022D1*
X2985687Y5492502D2*
Y5392022D1*
X2918700Y5444638D2*
X2985687D1*
X3073935Y5459008D2*
Y5392022D1*
Y5444638D2*
X3064429Y5454255D1*
X3054812Y5459008D1*
X3040553D1*
X3030936Y5454255D1*
X3021429Y5444638D1*
X3016566Y5430268D1*
Y5420762D1*
X3021429Y5406392D1*
X3030936Y5396885D1*
X3040553Y5392022D1*
X3054812D1*
X3064429Y5396885D1*
X3073935Y5406392D1*
X3104814Y5459008D2*
X3157430D1*
X3104814Y5392022D1*
X3157430D1*
X3245679Y5459008D2*
Y5392022D1*
Y5444638D2*
X3236172Y5454255D1*
X3226556Y5459008D1*
X3212296D1*
X3202679Y5454255D1*
X3193173Y5444638D1*
X3188309Y5430268D1*
Y5420762D1*
X3193173Y5406392D1*
X3202679Y5396885D1*
X3212296Y5392022D1*
X3226556D1*
X3236172Y5396885D1*
X3245679Y5406392D1*
X3276557Y5459008D2*
Y5392022D1*
Y5430268D2*
X3281421Y5444638D1*
X3290927Y5454255D1*
X3300544Y5459008D1*
X3314914D1*
X3403163Y5492502D2*
Y5392022D1*
Y5444638D2*
X3393656Y5454255D1*
X3384039Y5459008D1*
X3369669D1*
X3360163Y5454255D1*
X3350546Y5444638D1*
X3345793Y5430268D1*
Y5420762D1*
X3350546Y5406392D1*
X3360163Y5396885D1*
X3369669Y5392022D1*
X3384039D1*
X3393656Y5396885D1*
X3403163Y5406392D1*
X3486658Y5444638D2*
X3481904Y5454255D1*
X3467534Y5459008D1*
X3453164D1*
X3438794Y5454255D1*
X3434041Y5444638D1*
X3438794Y5435132D1*
X3448411Y5430268D1*
X3472288Y5425515D1*
X3481904Y5420762D1*
X3486658Y5411145D1*
Y5406392D1*
X3481904Y5396885D1*
X3467534Y5392022D1*
X3453164D1*
X3438794Y5396885D1*
X3434041Y5406392D1*
X2493700Y5444638D2*
X2536700D1*
X2551070Y5449502D1*
X2555934Y5454255D1*
X2560687Y5463762D1*
Y5473379D1*
X2555934Y5482885D1*
X2551070Y5487749D1*
X2536700Y5492502D1*
X2493700D1*
Y5392022D1*
X2527194Y5444638D2*
X2560687Y5392022D1*
X2591566Y5492502D2*
X2596319Y5487749D1*
X2601183Y5492502D1*
X2596319Y5497365D1*
X2591566Y5492502D1*
X2596319Y5459008D2*
Y5392022D1*
X2689431Y5454255D2*
Y5377652D1*
X2684678Y5363392D1*
X2679924Y5358528D1*
X2670308Y5353775D1*
X2655937D1*
X2646431Y5358528D1*
X2689431Y5439885D2*
X2679924Y5449392D1*
X2670308Y5454255D1*
X2655937D1*
X2646431Y5449392D1*
X2636814Y5439885D1*
X2632061Y5425515D1*
Y5415898D1*
X2636814Y5401639D1*
X2646431Y5392022D1*
X2655937Y5387269D1*
X2670308D1*
X2679924Y5392022D1*
X2689431Y5401639D1*
X2720309Y5492502D2*
Y5392022D1*
Y5439885D2*
X2734679Y5454255D1*
X2744296Y5459008D1*
X2758666D1*
X2768173Y5454255D1*
X2772926Y5439885D1*
Y5392022D1*
X2818174Y5492502D2*
Y5411145D1*
X2822928Y5396885D1*
X2832545Y5392022D1*
X2842051D1*
X2803804Y5459008D2*
X2837298D1*
X1443700Y5492502D2*
Y5392022D1*
X1501070D1*
X1531949Y5430268D2*
X1589319D1*
Y5439885D1*
X1584565Y5449502D1*
X1579812Y5454255D1*
X1570195Y5459008D1*
X1555825D1*
X1546319Y5454255D1*
X1536702Y5444638D1*
X1531949Y5430268D1*
Y5420762D1*
X1536702Y5406392D1*
X1546319Y5396885D1*
X1555825Y5392022D1*
X1570195D1*
X1579812Y5396885D1*
X1589319Y5406392D1*
X1658444Y5492502D2*
X1648937D1*
X1639320Y5487749D1*
X1634567Y5473379D1*
Y5392022D1*
X1620197Y5459008D2*
X1653690D1*
X1703692Y5492502D2*
Y5411145D1*
X1708445Y5396885D1*
X1718062Y5392022D1*
X1727569D1*
X1689322Y5459008D2*
X1722815D1*
X1968700Y5492502D2*
Y5392022D1*
X2035687Y5492502D2*
Y5392022D1*
X1968700Y5444638D2*
X2035687D1*
X2090442Y5459008D2*
X2080936Y5454255D1*
X2071319Y5444638D1*
X2066566Y5430268D1*
Y5420762D1*
X2071319Y5406392D1*
X2080936Y5396885D1*
X2090442Y5392022D1*
X2104812D1*
X2114429Y5396885D1*
X2123935Y5406392D1*
X2128799Y5420762D1*
Y5430268D1*
X2123935Y5444638D1*
X2114429Y5454255D1*
X2104812Y5459008D1*
X2090442D1*
X2159678D2*
Y5392022D1*
Y5430268D2*
X2164541Y5444638D1*
X2174048Y5454255D1*
X2183665Y5459008D1*
X2198035D1*
X2228913D2*
Y5392022D1*
Y5439885D2*
X2243283Y5454255D1*
X2252900Y5459008D1*
X2267160D1*
X2276777Y5454255D1*
X2281530Y5439885D1*
Y5392022D1*
X1918700Y7192502D2*
Y7092022D1*
X1961811D1*
X1976181Y7096885D1*
X1980934Y7101639D1*
X1985687Y7111145D1*
Y7125515D1*
X1980934Y7135132D1*
X1976181Y7139885D1*
X1961811Y7144638D1*
X1976181Y7149502D1*
X1980934Y7154255D1*
X1985687Y7163762D1*
Y7173379D1*
X1980934Y7182885D1*
X1976181Y7187749D1*
X1961811Y7192502D1*
X1918700D1*
Y7144638D2*
X1961811D1*
X2016566Y7159008D2*
Y7092022D1*
Y7130268D2*
X2021429Y7144638D1*
X2030936Y7154255D1*
X2040553Y7159008D1*
X2054923D1*
X2143171D2*
Y7092022D1*
Y7144638D2*
X2133665Y7154255D1*
X2124048Y7159008D1*
X2109788D1*
X2100171Y7154255D1*
X2090665Y7144638D1*
X2085801Y7130268D1*
Y7120762D1*
X2090665Y7106392D1*
X2100171Y7096885D1*
X2109788Y7092022D1*
X2124048D1*
X2133665Y7096885D1*
X2143171Y7106392D1*
X2174049Y7192502D2*
Y7092022D1*
X2221913Y7159008D2*
X2174049Y7111145D1*
X2193173Y7130268D2*
X2226666Y7092022D1*
X2257545Y7130268D2*
X2314914D1*
Y7139885D1*
X2310161Y7149502D1*
X2305408Y7154255D1*
X2295791Y7159008D1*
X2281421D1*
X2271915Y7154255D1*
X2262298Y7144638D1*
X2257545Y7130268D1*
Y7120762D1*
X2262298Y7106392D1*
X2271915Y7096885D1*
X2281421Y7092022D1*
X2295791D1*
X2305408Y7096885D1*
X2314914Y7106392D1*
X2398409Y7144638D2*
X2393656Y7154255D1*
X2379286Y7159008D1*
X2364916D1*
X2350546Y7154255D1*
X2345793Y7144638D1*
X2350546Y7135132D1*
X2360163Y7130268D1*
X2384039Y7125515D1*
X2393656Y7120762D1*
X2398409Y7111145D1*
Y7106392D1*
X2393656Y7096885D1*
X2379286Y7092022D1*
X2364916D1*
X2350546Y7096885D1*
X2345793Y7106392D1*
X2240808Y2936070D2*
D50*
X2196592D1*
X1962676Y2901626D2*
Y2970514D1*
X1997075Y2936114D2*
X1928187D1*
M02*
